M48
; DRILL file {KiCad 9.0.5-9.0.5~ubuntu24.04.1} date 2025-12-28T13:44:31+0900
; FORMAT={-:-/ absolute / metric / decimal}
; #@! TF.CreationDate,2025-12-28T13:44:31+09:00
; #@! TF.GenerationSoftware,Kicad,Pcbnew,9.0.5-9.0.5~ubuntu24.04.1
; #@! TF.FileFunction,Plated,1,2,PTH
FMAT,2
METRIC
; #@! TA.AperFunction,Plated,PTH,ViaDrill
T1C0.300
; #@! TA.AperFunction,Plated,PTH,ComponentDrill
T2C0.800
; #@! TA.AperFunction,Plated,PTH,ComponentDrill
T3C0.864
; #@! TA.AperFunction,Plated,PTH,ComponentDrill
T4C1.000
; #@! TA.AperFunction,Plated,PTH,ComponentDrill
T5C1.100
%
G90
G05
T1
X196.0Y-71.0
X200.8Y-102.2
X202.08Y-49.8
X204.0Y-52.4
X204.5Y-56.0
X205.3Y-69.8
X205.895Y-63.024
X206.0Y-72.0
X206.6Y-65.4
X207.2Y-62.7
X207.225Y-72.0
X207.5Y-57.8
X207.7Y-65.4
X208.194Y-72.728
X208.4Y-53.2
X208.5Y-65.4
X209.2Y-69.5
X209.8Y-57.8
X210.2Y-69.0
X217.4Y-49.0
X217.8Y-71.8
X220.6Y-83.4
X220.6Y-88.2
X221.2Y-105.0
X224.4Y-64.4
X224.5Y-75.2
X229.2Y-48.8
X240.6Y-64.4
X244.4Y-78.6
T2
X195.875Y-80.075
X197.25Y-74.85
X197.35Y-85.1
X198.8Y-93.0
X198.95Y-99.0
X199.75Y-74.85
X199.85Y-85.1
X200.875Y-80.075
X200.95Y-99.0
X201.3Y-93.0
X204.3Y-73.7
X204.3Y-78.7
X206.6Y-80.7
X207.2Y-75.7
X208.1Y-85.8
X209.7Y-75.7
X210.6Y-85.8
X211.6Y-80.7
X214.2Y-74.3
X214.2Y-79.3
X215.5Y-94.7
X216.9Y-100.9
X218.0Y-94.7
X218.9Y-100.9
X232.1Y-66.4
X232.6Y-79.1
X234.3Y-101.1
X234.3Y-103.1
X234.4Y-87.05
X234.4Y-89.55
X234.6Y-66.4
X234.6Y-94.0
X234.6Y-96.0
X236.3Y-101.1
X236.3Y-103.1
X237.3Y-71.0
X237.6Y-79.1
X238.3Y-61.4
X238.3Y-66.4
X239.8Y-71.0
X241.2Y-93.6
X241.4Y-86.1
X241.6Y-82.8
X242.0Y-75.0
X242.0Y-80.0
X243.6Y-82.8
X246.2Y-93.6
X246.4Y-86.1
T3
X204.68Y-91.2
X204.68Y-93.74
X204.68Y-96.28
X204.68Y-98.82
X212.3Y-91.2
X212.3Y-93.74
X212.3Y-96.28
X212.3Y-98.82
X215.28Y-63.6
X215.28Y-66.14
X215.28Y-68.68
X215.28Y-71.22
X217.79Y-77.59
X217.79Y-80.13
X217.79Y-82.67
X217.79Y-85.21
X222.9Y-63.6
X222.9Y-66.14
X222.9Y-68.68
X222.9Y-71.22
X225.41Y-77.59
X225.41Y-80.13
X225.41Y-82.67
X225.41Y-85.21
T4
X204.1Y-81.86
X204.1Y-84.4
X204.1Y-86.94
X214.6Y-82.52
X214.6Y-85.06
X214.6Y-87.6
X215.46Y-41.5
X218.0Y-41.5
X220.54Y-41.5
X226.3Y-93.58
X226.3Y-96.12
X226.3Y-98.66
X226.3Y-101.2
X226.3Y-103.74
X226.3Y-106.28
X226.3Y-108.82
X226.3Y-111.36
X228.1Y-64.76
X228.1Y-67.3
X228.1Y-69.84
X228.3Y-82.52
X228.3Y-85.06
X228.3Y-87.6
X228.625Y-41.5
X228.84Y-93.58
X228.84Y-96.12
X228.84Y-98.66
X228.84Y-101.2
X228.84Y-103.74
X228.84Y-106.28
X228.84Y-108.82
X228.84Y-111.36
X231.165Y-41.5
T5
X198.1Y-45.2
X198.1Y-60.44
X200.64Y-45.2
X200.64Y-60.44
X203.18Y-45.2
X203.18Y-60.44
X203.8Y-101.94
X203.8Y-112.1
X205.72Y-45.2
X205.72Y-60.44
X207.1Y-101.94
X207.1Y-112.1
X208.26Y-45.2
X208.26Y-60.44
X210.4Y-101.94
X210.4Y-112.1
X210.8Y-45.2
X210.8Y-60.44
X213.34Y-45.2
X213.34Y-60.44
X213.7Y-101.94
X213.7Y-112.1
X215.88Y-45.2
X215.88Y-60.44
X218.42Y-45.2
X218.42Y-60.44
X220.96Y-45.2
X220.96Y-60.44
X223.5Y-45.2
X223.5Y-60.44
X226.04Y-45.2
X226.04Y-60.44
X228.58Y-45.2
X228.58Y-60.44
X231.12Y-45.2
X231.12Y-60.44
X238.24Y-58.1
X244.95Y-61.8
X244.95Y-65.2
X244.95Y-68.6
X248.4Y-58.1
X248.65Y-63.5
X248.65Y-66.9
X249.0Y-72.24
X249.0Y-82.4
M30
