%TF.GenerationSoftware,KiCad,Pcbnew,9.0.5-9.0.5~ubuntu24.04.1*%
%TF.CreationDate,2025-12-28T13:44:13+09:00*%
%TF.ProjectId,bdm-reverb,62646d2d-7265-4766-9572-622e6b696361,rev?*%
%TF.SameCoordinates,Original*%
%TF.FileFunction,Legend,Top*%
%TF.FilePolarity,Positive*%
%FSLAX46Y46*%
G04 Gerber Fmt 4.6, Leading zero omitted, Abs format (unit mm)*
G04 Created by KiCad (PCBNEW 9.0.5-9.0.5~ubuntu24.04.1) date 2025-12-28 13:44:13*
%MOMM*%
%LPD*%
G01*
G04 APERTURE LIST*
%ADD10C,0.100000*%
%ADD11C,0.150000*%
%ADD12C,0.080000*%
%ADD13C,0.120000*%
%ADD14C,0.152400*%
G04 APERTURE END LIST*
D10*
X240646741Y-113872419D02*
X240551503Y-113824800D01*
X240551503Y-113824800D02*
X240503884Y-113777180D01*
X240503884Y-113777180D02*
X240456265Y-113681942D01*
X240456265Y-113681942D02*
X240456265Y-113396228D01*
X240456265Y-113396228D02*
X240503884Y-113300990D01*
X240503884Y-113300990D02*
X240551503Y-113253371D01*
X240551503Y-113253371D02*
X240646741Y-113205752D01*
X240646741Y-113205752D02*
X240789598Y-113205752D01*
X240789598Y-113205752D02*
X240884836Y-113253371D01*
X240884836Y-113253371D02*
X240932455Y-113300990D01*
X240932455Y-113300990D02*
X240980074Y-113396228D01*
X240980074Y-113396228D02*
X240980074Y-113681942D01*
X240980074Y-113681942D02*
X240932455Y-113777180D01*
X240932455Y-113777180D02*
X240884836Y-113824800D01*
X240884836Y-113824800D02*
X240789598Y-113872419D01*
X240789598Y-113872419D02*
X240646741Y-113872419D01*
X241408646Y-113872419D02*
X241408646Y-113205752D01*
X241408646Y-113300990D02*
X241456265Y-113253371D01*
X241456265Y-113253371D02*
X241551503Y-113205752D01*
X241551503Y-113205752D02*
X241694360Y-113205752D01*
X241694360Y-113205752D02*
X241789598Y-113253371D01*
X241789598Y-113253371D02*
X241837217Y-113348609D01*
X241837217Y-113348609D02*
X241837217Y-113872419D01*
X241837217Y-113348609D02*
X241884836Y-113253371D01*
X241884836Y-113253371D02*
X241980074Y-113205752D01*
X241980074Y-113205752D02*
X242122931Y-113205752D01*
X242122931Y-113205752D02*
X242218170Y-113253371D01*
X242218170Y-113253371D02*
X242265789Y-113348609D01*
X242265789Y-113348609D02*
X242265789Y-113872419D01*
X242884836Y-113872419D02*
X242789598Y-113824800D01*
X242789598Y-113824800D02*
X242741979Y-113729561D01*
X242741979Y-113729561D02*
X242741979Y-112872419D01*
X243646741Y-113824800D02*
X243551503Y-113872419D01*
X243551503Y-113872419D02*
X243361027Y-113872419D01*
X243361027Y-113872419D02*
X243265789Y-113824800D01*
X243265789Y-113824800D02*
X243218170Y-113729561D01*
X243218170Y-113729561D02*
X243218170Y-113348609D01*
X243218170Y-113348609D02*
X243265789Y-113253371D01*
X243265789Y-113253371D02*
X243361027Y-113205752D01*
X243361027Y-113205752D02*
X243551503Y-113205752D01*
X243551503Y-113205752D02*
X243646741Y-113253371D01*
X243646741Y-113253371D02*
X243694360Y-113348609D01*
X243694360Y-113348609D02*
X243694360Y-113443847D01*
X243694360Y-113443847D02*
X243218170Y-113539085D01*
X243980075Y-113205752D02*
X244361027Y-113205752D01*
X244122932Y-112872419D02*
X244122932Y-113729561D01*
X244122932Y-113729561D02*
X244170551Y-113824800D01*
X244170551Y-113824800D02*
X244265789Y-113872419D01*
X244265789Y-113872419D02*
X244361027Y-113872419D01*
D11*
X204659580Y-76366666D02*
X204707200Y-76414285D01*
X204707200Y-76414285D02*
X204754819Y-76557142D01*
X204754819Y-76557142D02*
X204754819Y-76652380D01*
X204754819Y-76652380D02*
X204707200Y-76795237D01*
X204707200Y-76795237D02*
X204611961Y-76890475D01*
X204611961Y-76890475D02*
X204516723Y-76938094D01*
X204516723Y-76938094D02*
X204326247Y-76985713D01*
X204326247Y-76985713D02*
X204183390Y-76985713D01*
X204183390Y-76985713D02*
X203992914Y-76938094D01*
X203992914Y-76938094D02*
X203897676Y-76890475D01*
X203897676Y-76890475D02*
X203802438Y-76795237D01*
X203802438Y-76795237D02*
X203754819Y-76652380D01*
X203754819Y-76652380D02*
X203754819Y-76557142D01*
X203754819Y-76557142D02*
X203802438Y-76414285D01*
X203802438Y-76414285D02*
X203850057Y-76366666D01*
X204754819Y-75890475D02*
X204754819Y-75699999D01*
X204754819Y-75699999D02*
X204707200Y-75604761D01*
X204707200Y-75604761D02*
X204659580Y-75557142D01*
X204659580Y-75557142D02*
X204516723Y-75461904D01*
X204516723Y-75461904D02*
X204326247Y-75414285D01*
X204326247Y-75414285D02*
X203945295Y-75414285D01*
X203945295Y-75414285D02*
X203850057Y-75461904D01*
X203850057Y-75461904D02*
X203802438Y-75509523D01*
X203802438Y-75509523D02*
X203754819Y-75604761D01*
X203754819Y-75604761D02*
X203754819Y-75795237D01*
X203754819Y-75795237D02*
X203802438Y-75890475D01*
X203802438Y-75890475D02*
X203850057Y-75938094D01*
X203850057Y-75938094D02*
X203945295Y-75985713D01*
X203945295Y-75985713D02*
X204183390Y-75985713D01*
X204183390Y-75985713D02*
X204278628Y-75938094D01*
X204278628Y-75938094D02*
X204326247Y-75890475D01*
X204326247Y-75890475D02*
X204373866Y-75795237D01*
X204373866Y-75795237D02*
X204373866Y-75604761D01*
X204373866Y-75604761D02*
X204326247Y-75509523D01*
X204326247Y-75509523D02*
X204278628Y-75461904D01*
X204278628Y-75461904D02*
X204183390Y-75414285D01*
D10*
X238857419Y-83933333D02*
X239571704Y-83933333D01*
X239571704Y-83933333D02*
X239714561Y-83980952D01*
X239714561Y-83980952D02*
X239809800Y-84076190D01*
X239809800Y-84076190D02*
X239857419Y-84219047D01*
X239857419Y-84219047D02*
X239857419Y-84314285D01*
X239190752Y-83028571D02*
X239857419Y-83028571D01*
X238809800Y-83266666D02*
X239524085Y-83504761D01*
X239524085Y-83504761D02*
X239524085Y-82885714D01*
X232533333Y-96742580D02*
X232533333Y-96028295D01*
X232533333Y-96028295D02*
X232580952Y-95885438D01*
X232580952Y-95885438D02*
X232676190Y-95790200D01*
X232676190Y-95790200D02*
X232819047Y-95742580D01*
X232819047Y-95742580D02*
X232914285Y-95742580D01*
X232152380Y-96742580D02*
X231533333Y-96742580D01*
X231533333Y-96742580D02*
X231866666Y-96361628D01*
X231866666Y-96361628D02*
X231723809Y-96361628D01*
X231723809Y-96361628D02*
X231628571Y-96314009D01*
X231628571Y-96314009D02*
X231580952Y-96266390D01*
X231580952Y-96266390D02*
X231533333Y-96171152D01*
X231533333Y-96171152D02*
X231533333Y-95933057D01*
X231533333Y-95933057D02*
X231580952Y-95837819D01*
X231580952Y-95837819D02*
X231628571Y-95790200D01*
X231628571Y-95790200D02*
X231723809Y-95742580D01*
X231723809Y-95742580D02*
X232009523Y-95742580D01*
X232009523Y-95742580D02*
X232104761Y-95790200D01*
X232104761Y-95790200D02*
X232152380Y-95837819D01*
X219742580Y-102266666D02*
X219028295Y-102266666D01*
X219028295Y-102266666D02*
X218885438Y-102219047D01*
X218885438Y-102219047D02*
X218790200Y-102123809D01*
X218790200Y-102123809D02*
X218742580Y-101980952D01*
X218742580Y-101980952D02*
X218742580Y-101885714D01*
X219647342Y-102695238D02*
X219694961Y-102742857D01*
X219694961Y-102742857D02*
X219742580Y-102838095D01*
X219742580Y-102838095D02*
X219742580Y-103076190D01*
X219742580Y-103076190D02*
X219694961Y-103171428D01*
X219694961Y-103171428D02*
X219647342Y-103219047D01*
X219647342Y-103219047D02*
X219552104Y-103266666D01*
X219552104Y-103266666D02*
X219456866Y-103266666D01*
X219456866Y-103266666D02*
X219314009Y-103219047D01*
X219314009Y-103219047D02*
X218742580Y-102647619D01*
X218742580Y-102647619D02*
X218742580Y-103266666D01*
D11*
X205439580Y-42442857D02*
X205487200Y-42490476D01*
X205487200Y-42490476D02*
X205534819Y-42633333D01*
X205534819Y-42633333D02*
X205534819Y-42728571D01*
X205534819Y-42728571D02*
X205487200Y-42871428D01*
X205487200Y-42871428D02*
X205391961Y-42966666D01*
X205391961Y-42966666D02*
X205296723Y-43014285D01*
X205296723Y-43014285D02*
X205106247Y-43061904D01*
X205106247Y-43061904D02*
X204963390Y-43061904D01*
X204963390Y-43061904D02*
X204772914Y-43014285D01*
X204772914Y-43014285D02*
X204677676Y-42966666D01*
X204677676Y-42966666D02*
X204582438Y-42871428D01*
X204582438Y-42871428D02*
X204534819Y-42728571D01*
X204534819Y-42728571D02*
X204534819Y-42633333D01*
X204534819Y-42633333D02*
X204582438Y-42490476D01*
X204582438Y-42490476D02*
X204630057Y-42442857D01*
X204868152Y-41585714D02*
X205534819Y-41585714D01*
X204487200Y-41823809D02*
X205201485Y-42061904D01*
X205201485Y-42061904D02*
X205201485Y-41442857D01*
X204534819Y-40871428D02*
X204534819Y-40776190D01*
X204534819Y-40776190D02*
X204582438Y-40680952D01*
X204582438Y-40680952D02*
X204630057Y-40633333D01*
X204630057Y-40633333D02*
X204725295Y-40585714D01*
X204725295Y-40585714D02*
X204915771Y-40538095D01*
X204915771Y-40538095D02*
X205153866Y-40538095D01*
X205153866Y-40538095D02*
X205344342Y-40585714D01*
X205344342Y-40585714D02*
X205439580Y-40633333D01*
X205439580Y-40633333D02*
X205487200Y-40680952D01*
X205487200Y-40680952D02*
X205534819Y-40776190D01*
X205534819Y-40776190D02*
X205534819Y-40871428D01*
X205534819Y-40871428D02*
X205487200Y-40966666D01*
X205487200Y-40966666D02*
X205439580Y-41014285D01*
X205439580Y-41014285D02*
X205344342Y-41061904D01*
X205344342Y-41061904D02*
X205153866Y-41109523D01*
X205153866Y-41109523D02*
X204915771Y-41109523D01*
X204915771Y-41109523D02*
X204725295Y-41061904D01*
X204725295Y-41061904D02*
X204630057Y-41014285D01*
X204630057Y-41014285D02*
X204582438Y-40966666D01*
X204582438Y-40966666D02*
X204534819Y-40871428D01*
X199833333Y-91359580D02*
X199785714Y-91407200D01*
X199785714Y-91407200D02*
X199642857Y-91454819D01*
X199642857Y-91454819D02*
X199547619Y-91454819D01*
X199547619Y-91454819D02*
X199404762Y-91407200D01*
X199404762Y-91407200D02*
X199309524Y-91311961D01*
X199309524Y-91311961D02*
X199261905Y-91216723D01*
X199261905Y-91216723D02*
X199214286Y-91026247D01*
X199214286Y-91026247D02*
X199214286Y-90883390D01*
X199214286Y-90883390D02*
X199261905Y-90692914D01*
X199261905Y-90692914D02*
X199309524Y-90597676D01*
X199309524Y-90597676D02*
X199404762Y-90502438D01*
X199404762Y-90502438D02*
X199547619Y-90454819D01*
X199547619Y-90454819D02*
X199642857Y-90454819D01*
X199642857Y-90454819D02*
X199785714Y-90502438D01*
X199785714Y-90502438D02*
X199833333Y-90550057D01*
X200738095Y-90454819D02*
X200261905Y-90454819D01*
X200261905Y-90454819D02*
X200214286Y-90931009D01*
X200214286Y-90931009D02*
X200261905Y-90883390D01*
X200261905Y-90883390D02*
X200357143Y-90835771D01*
X200357143Y-90835771D02*
X200595238Y-90835771D01*
X200595238Y-90835771D02*
X200690476Y-90883390D01*
X200690476Y-90883390D02*
X200738095Y-90931009D01*
X200738095Y-90931009D02*
X200785714Y-91026247D01*
X200785714Y-91026247D02*
X200785714Y-91264342D01*
X200785714Y-91264342D02*
X200738095Y-91359580D01*
X200738095Y-91359580D02*
X200690476Y-91407200D01*
X200690476Y-91407200D02*
X200595238Y-91454819D01*
X200595238Y-91454819D02*
X200357143Y-91454819D01*
X200357143Y-91454819D02*
X200261905Y-91407200D01*
X200261905Y-91407200D02*
X200214286Y-91359580D01*
X222007142Y-97379580D02*
X221959523Y-97427200D01*
X221959523Y-97427200D02*
X221816666Y-97474819D01*
X221816666Y-97474819D02*
X221721428Y-97474819D01*
X221721428Y-97474819D02*
X221578571Y-97427200D01*
X221578571Y-97427200D02*
X221483333Y-97331961D01*
X221483333Y-97331961D02*
X221435714Y-97236723D01*
X221435714Y-97236723D02*
X221388095Y-97046247D01*
X221388095Y-97046247D02*
X221388095Y-96903390D01*
X221388095Y-96903390D02*
X221435714Y-96712914D01*
X221435714Y-96712914D02*
X221483333Y-96617676D01*
X221483333Y-96617676D02*
X221578571Y-96522438D01*
X221578571Y-96522438D02*
X221721428Y-96474819D01*
X221721428Y-96474819D02*
X221816666Y-96474819D01*
X221816666Y-96474819D02*
X221959523Y-96522438D01*
X221959523Y-96522438D02*
X222007142Y-96570057D01*
X222340476Y-96474819D02*
X222959523Y-96474819D01*
X222959523Y-96474819D02*
X222626190Y-96855771D01*
X222626190Y-96855771D02*
X222769047Y-96855771D01*
X222769047Y-96855771D02*
X222864285Y-96903390D01*
X222864285Y-96903390D02*
X222911904Y-96951009D01*
X222911904Y-96951009D02*
X222959523Y-97046247D01*
X222959523Y-97046247D02*
X222959523Y-97284342D01*
X222959523Y-97284342D02*
X222911904Y-97379580D01*
X222911904Y-97379580D02*
X222864285Y-97427200D01*
X222864285Y-97427200D02*
X222769047Y-97474819D01*
X222769047Y-97474819D02*
X222483333Y-97474819D01*
X222483333Y-97474819D02*
X222388095Y-97427200D01*
X222388095Y-97427200D02*
X222340476Y-97379580D01*
X223435714Y-97474819D02*
X223626190Y-97474819D01*
X223626190Y-97474819D02*
X223721428Y-97427200D01*
X223721428Y-97427200D02*
X223769047Y-97379580D01*
X223769047Y-97379580D02*
X223864285Y-97236723D01*
X223864285Y-97236723D02*
X223911904Y-97046247D01*
X223911904Y-97046247D02*
X223911904Y-96665295D01*
X223911904Y-96665295D02*
X223864285Y-96570057D01*
X223864285Y-96570057D02*
X223816666Y-96522438D01*
X223816666Y-96522438D02*
X223721428Y-96474819D01*
X223721428Y-96474819D02*
X223530952Y-96474819D01*
X223530952Y-96474819D02*
X223435714Y-96522438D01*
X223435714Y-96522438D02*
X223388095Y-96570057D01*
X223388095Y-96570057D02*
X223340476Y-96665295D01*
X223340476Y-96665295D02*
X223340476Y-96903390D01*
X223340476Y-96903390D02*
X223388095Y-96998628D01*
X223388095Y-96998628D02*
X223435714Y-97046247D01*
X223435714Y-97046247D02*
X223530952Y-97093866D01*
X223530952Y-97093866D02*
X223721428Y-97093866D01*
X223721428Y-97093866D02*
X223816666Y-97046247D01*
X223816666Y-97046247D02*
X223864285Y-96998628D01*
X223864285Y-96998628D02*
X223911904Y-96903390D01*
X225239580Y-110942857D02*
X225287200Y-110990476D01*
X225287200Y-110990476D02*
X225334819Y-111133333D01*
X225334819Y-111133333D02*
X225334819Y-111228571D01*
X225334819Y-111228571D02*
X225287200Y-111371428D01*
X225287200Y-111371428D02*
X225191961Y-111466666D01*
X225191961Y-111466666D02*
X225096723Y-111514285D01*
X225096723Y-111514285D02*
X224906247Y-111561904D01*
X224906247Y-111561904D02*
X224763390Y-111561904D01*
X224763390Y-111561904D02*
X224572914Y-111514285D01*
X224572914Y-111514285D02*
X224477676Y-111466666D01*
X224477676Y-111466666D02*
X224382438Y-111371428D01*
X224382438Y-111371428D02*
X224334819Y-111228571D01*
X224334819Y-111228571D02*
X224334819Y-111133333D01*
X224334819Y-111133333D02*
X224382438Y-110990476D01*
X224382438Y-110990476D02*
X224430057Y-110942857D01*
X224334819Y-110609523D02*
X224334819Y-109990476D01*
X224334819Y-109990476D02*
X224715771Y-110323809D01*
X224715771Y-110323809D02*
X224715771Y-110180952D01*
X224715771Y-110180952D02*
X224763390Y-110085714D01*
X224763390Y-110085714D02*
X224811009Y-110038095D01*
X224811009Y-110038095D02*
X224906247Y-109990476D01*
X224906247Y-109990476D02*
X225144342Y-109990476D01*
X225144342Y-109990476D02*
X225239580Y-110038095D01*
X225239580Y-110038095D02*
X225287200Y-110085714D01*
X225287200Y-110085714D02*
X225334819Y-110180952D01*
X225334819Y-110180952D02*
X225334819Y-110466666D01*
X225334819Y-110466666D02*
X225287200Y-110561904D01*
X225287200Y-110561904D02*
X225239580Y-110609523D01*
X224763390Y-109419047D02*
X224715771Y-109514285D01*
X224715771Y-109514285D02*
X224668152Y-109561904D01*
X224668152Y-109561904D02*
X224572914Y-109609523D01*
X224572914Y-109609523D02*
X224525295Y-109609523D01*
X224525295Y-109609523D02*
X224430057Y-109561904D01*
X224430057Y-109561904D02*
X224382438Y-109514285D01*
X224382438Y-109514285D02*
X224334819Y-109419047D01*
X224334819Y-109419047D02*
X224334819Y-109228571D01*
X224334819Y-109228571D02*
X224382438Y-109133333D01*
X224382438Y-109133333D02*
X224430057Y-109085714D01*
X224430057Y-109085714D02*
X224525295Y-109038095D01*
X224525295Y-109038095D02*
X224572914Y-109038095D01*
X224572914Y-109038095D02*
X224668152Y-109085714D01*
X224668152Y-109085714D02*
X224715771Y-109133333D01*
X224715771Y-109133333D02*
X224763390Y-109228571D01*
X224763390Y-109228571D02*
X224763390Y-109419047D01*
X224763390Y-109419047D02*
X224811009Y-109514285D01*
X224811009Y-109514285D02*
X224858628Y-109561904D01*
X224858628Y-109561904D02*
X224953866Y-109609523D01*
X224953866Y-109609523D02*
X225144342Y-109609523D01*
X225144342Y-109609523D02*
X225239580Y-109561904D01*
X225239580Y-109561904D02*
X225287200Y-109514285D01*
X225287200Y-109514285D02*
X225334819Y-109419047D01*
X225334819Y-109419047D02*
X225334819Y-109228571D01*
X225334819Y-109228571D02*
X225287200Y-109133333D01*
X225287200Y-109133333D02*
X225239580Y-109085714D01*
X225239580Y-109085714D02*
X225144342Y-109038095D01*
X225144342Y-109038095D02*
X224953866Y-109038095D01*
X224953866Y-109038095D02*
X224858628Y-109085714D01*
X224858628Y-109085714D02*
X224811009Y-109133333D01*
X224811009Y-109133333D02*
X224763390Y-109228571D01*
X221979580Y-102792857D02*
X222027200Y-102840476D01*
X222027200Y-102840476D02*
X222074819Y-102983333D01*
X222074819Y-102983333D02*
X222074819Y-103078571D01*
X222074819Y-103078571D02*
X222027200Y-103221428D01*
X222027200Y-103221428D02*
X221931961Y-103316666D01*
X221931961Y-103316666D02*
X221836723Y-103364285D01*
X221836723Y-103364285D02*
X221646247Y-103411904D01*
X221646247Y-103411904D02*
X221503390Y-103411904D01*
X221503390Y-103411904D02*
X221312914Y-103364285D01*
X221312914Y-103364285D02*
X221217676Y-103316666D01*
X221217676Y-103316666D02*
X221122438Y-103221428D01*
X221122438Y-103221428D02*
X221074819Y-103078571D01*
X221074819Y-103078571D02*
X221074819Y-102983333D01*
X221074819Y-102983333D02*
X221122438Y-102840476D01*
X221122438Y-102840476D02*
X221170057Y-102792857D01*
X221074819Y-102459523D02*
X221074819Y-101840476D01*
X221074819Y-101840476D02*
X221455771Y-102173809D01*
X221455771Y-102173809D02*
X221455771Y-102030952D01*
X221455771Y-102030952D02*
X221503390Y-101935714D01*
X221503390Y-101935714D02*
X221551009Y-101888095D01*
X221551009Y-101888095D02*
X221646247Y-101840476D01*
X221646247Y-101840476D02*
X221884342Y-101840476D01*
X221884342Y-101840476D02*
X221979580Y-101888095D01*
X221979580Y-101888095D02*
X222027200Y-101935714D01*
X222027200Y-101935714D02*
X222074819Y-102030952D01*
X222074819Y-102030952D02*
X222074819Y-102316666D01*
X222074819Y-102316666D02*
X222027200Y-102411904D01*
X222027200Y-102411904D02*
X221979580Y-102459523D01*
X221074819Y-101507142D02*
X221074819Y-100840476D01*
X221074819Y-100840476D02*
X222074819Y-101269047D01*
X237857142Y-73259580D02*
X237809523Y-73307200D01*
X237809523Y-73307200D02*
X237666666Y-73354819D01*
X237666666Y-73354819D02*
X237571428Y-73354819D01*
X237571428Y-73354819D02*
X237428571Y-73307200D01*
X237428571Y-73307200D02*
X237333333Y-73211961D01*
X237333333Y-73211961D02*
X237285714Y-73116723D01*
X237285714Y-73116723D02*
X237238095Y-72926247D01*
X237238095Y-72926247D02*
X237238095Y-72783390D01*
X237238095Y-72783390D02*
X237285714Y-72592914D01*
X237285714Y-72592914D02*
X237333333Y-72497676D01*
X237333333Y-72497676D02*
X237428571Y-72402438D01*
X237428571Y-72402438D02*
X237571428Y-72354819D01*
X237571428Y-72354819D02*
X237666666Y-72354819D01*
X237666666Y-72354819D02*
X237809523Y-72402438D01*
X237809523Y-72402438D02*
X237857142Y-72450057D01*
X238238095Y-72450057D02*
X238285714Y-72402438D01*
X238285714Y-72402438D02*
X238380952Y-72354819D01*
X238380952Y-72354819D02*
X238619047Y-72354819D01*
X238619047Y-72354819D02*
X238714285Y-72402438D01*
X238714285Y-72402438D02*
X238761904Y-72450057D01*
X238761904Y-72450057D02*
X238809523Y-72545295D01*
X238809523Y-72545295D02*
X238809523Y-72640533D01*
X238809523Y-72640533D02*
X238761904Y-72783390D01*
X238761904Y-72783390D02*
X238190476Y-73354819D01*
X238190476Y-73354819D02*
X238809523Y-73354819D01*
X239666666Y-72688152D02*
X239666666Y-73354819D01*
X239428571Y-72307200D02*
X239190476Y-73021485D01*
X239190476Y-73021485D02*
X239809523Y-73021485D01*
X234457142Y-81159580D02*
X234409523Y-81207200D01*
X234409523Y-81207200D02*
X234266666Y-81254819D01*
X234266666Y-81254819D02*
X234171428Y-81254819D01*
X234171428Y-81254819D02*
X234028571Y-81207200D01*
X234028571Y-81207200D02*
X233933333Y-81111961D01*
X233933333Y-81111961D02*
X233885714Y-81016723D01*
X233885714Y-81016723D02*
X233838095Y-80826247D01*
X233838095Y-80826247D02*
X233838095Y-80683390D01*
X233838095Y-80683390D02*
X233885714Y-80492914D01*
X233885714Y-80492914D02*
X233933333Y-80397676D01*
X233933333Y-80397676D02*
X234028571Y-80302438D01*
X234028571Y-80302438D02*
X234171428Y-80254819D01*
X234171428Y-80254819D02*
X234266666Y-80254819D01*
X234266666Y-80254819D02*
X234409523Y-80302438D01*
X234409523Y-80302438D02*
X234457142Y-80350057D01*
X234838095Y-80350057D02*
X234885714Y-80302438D01*
X234885714Y-80302438D02*
X234980952Y-80254819D01*
X234980952Y-80254819D02*
X235219047Y-80254819D01*
X235219047Y-80254819D02*
X235314285Y-80302438D01*
X235314285Y-80302438D02*
X235361904Y-80350057D01*
X235361904Y-80350057D02*
X235409523Y-80445295D01*
X235409523Y-80445295D02*
X235409523Y-80540533D01*
X235409523Y-80540533D02*
X235361904Y-80683390D01*
X235361904Y-80683390D02*
X234790476Y-81254819D01*
X234790476Y-81254819D02*
X235409523Y-81254819D01*
X236028571Y-80254819D02*
X236123809Y-80254819D01*
X236123809Y-80254819D02*
X236219047Y-80302438D01*
X236219047Y-80302438D02*
X236266666Y-80350057D01*
X236266666Y-80350057D02*
X236314285Y-80445295D01*
X236314285Y-80445295D02*
X236361904Y-80635771D01*
X236361904Y-80635771D02*
X236361904Y-80873866D01*
X236361904Y-80873866D02*
X236314285Y-81064342D01*
X236314285Y-81064342D02*
X236266666Y-81159580D01*
X236266666Y-81159580D02*
X236219047Y-81207200D01*
X236219047Y-81207200D02*
X236123809Y-81254819D01*
X236123809Y-81254819D02*
X236028571Y-81254819D01*
X236028571Y-81254819D02*
X235933333Y-81207200D01*
X235933333Y-81207200D02*
X235885714Y-81159580D01*
X235885714Y-81159580D02*
X235838095Y-81064342D01*
X235838095Y-81064342D02*
X235790476Y-80873866D01*
X235790476Y-80873866D02*
X235790476Y-80635771D01*
X235790476Y-80635771D02*
X235838095Y-80445295D01*
X235838095Y-80445295D02*
X235885714Y-80350057D01*
X235885714Y-80350057D02*
X235933333Y-80302438D01*
X235933333Y-80302438D02*
X236028571Y-80254819D01*
D12*
X233085714Y-64689744D02*
X233047618Y-64727840D01*
X233047618Y-64727840D02*
X232933333Y-64765935D01*
X232933333Y-64765935D02*
X232857142Y-64765935D01*
X232857142Y-64765935D02*
X232742856Y-64727840D01*
X232742856Y-64727840D02*
X232666666Y-64651649D01*
X232666666Y-64651649D02*
X232628571Y-64575459D01*
X232628571Y-64575459D02*
X232590475Y-64423078D01*
X232590475Y-64423078D02*
X232590475Y-64308792D01*
X232590475Y-64308792D02*
X232628571Y-64156411D01*
X232628571Y-64156411D02*
X232666666Y-64080220D01*
X232666666Y-64080220D02*
X232742856Y-64004030D01*
X232742856Y-64004030D02*
X232857142Y-63965935D01*
X232857142Y-63965935D02*
X232933333Y-63965935D01*
X232933333Y-63965935D02*
X233047618Y-64004030D01*
X233047618Y-64004030D02*
X233085714Y-64042125D01*
X233390475Y-64042125D02*
X233428571Y-64004030D01*
X233428571Y-64004030D02*
X233504761Y-63965935D01*
X233504761Y-63965935D02*
X233695237Y-63965935D01*
X233695237Y-63965935D02*
X233771428Y-64004030D01*
X233771428Y-64004030D02*
X233809523Y-64042125D01*
X233809523Y-64042125D02*
X233847618Y-64118316D01*
X233847618Y-64118316D02*
X233847618Y-64194506D01*
X233847618Y-64194506D02*
X233809523Y-64308792D01*
X233809523Y-64308792D02*
X233352380Y-64765935D01*
X233352380Y-64765935D02*
X233847618Y-64765935D01*
X234114285Y-63965935D02*
X234609523Y-63965935D01*
X234609523Y-63965935D02*
X234342857Y-64270697D01*
X234342857Y-64270697D02*
X234457142Y-64270697D01*
X234457142Y-64270697D02*
X234533333Y-64308792D01*
X234533333Y-64308792D02*
X234571428Y-64346887D01*
X234571428Y-64346887D02*
X234609523Y-64423078D01*
X234609523Y-64423078D02*
X234609523Y-64613554D01*
X234609523Y-64613554D02*
X234571428Y-64689744D01*
X234571428Y-64689744D02*
X234533333Y-64727840D01*
X234533333Y-64727840D02*
X234457142Y-64765935D01*
X234457142Y-64765935D02*
X234228571Y-64765935D01*
X234228571Y-64765935D02*
X234152380Y-64727840D01*
X234152380Y-64727840D02*
X234114285Y-64689744D01*
D11*
X218328095Y-66864819D02*
X218328095Y-67674342D01*
X218328095Y-67674342D02*
X218375714Y-67769580D01*
X218375714Y-67769580D02*
X218423333Y-67817200D01*
X218423333Y-67817200D02*
X218518571Y-67864819D01*
X218518571Y-67864819D02*
X218709047Y-67864819D01*
X218709047Y-67864819D02*
X218804285Y-67817200D01*
X218804285Y-67817200D02*
X218851904Y-67769580D01*
X218851904Y-67769580D02*
X218899523Y-67674342D01*
X218899523Y-67674342D02*
X218899523Y-66864819D01*
X219280476Y-66864819D02*
X219899523Y-66864819D01*
X219899523Y-66864819D02*
X219566190Y-67245771D01*
X219566190Y-67245771D02*
X219709047Y-67245771D01*
X219709047Y-67245771D02*
X219804285Y-67293390D01*
X219804285Y-67293390D02*
X219851904Y-67341009D01*
X219851904Y-67341009D02*
X219899523Y-67436247D01*
X219899523Y-67436247D02*
X219899523Y-67674342D01*
X219899523Y-67674342D02*
X219851904Y-67769580D01*
X219851904Y-67769580D02*
X219804285Y-67817200D01*
X219804285Y-67817200D02*
X219709047Y-67864819D01*
X219709047Y-67864819D02*
X219423333Y-67864819D01*
X219423333Y-67864819D02*
X219328095Y-67817200D01*
X219328095Y-67817200D02*
X219280476Y-67769580D01*
X214054819Y-107338094D02*
X213054819Y-107338094D01*
X213054819Y-107338094D02*
X213054819Y-107099999D01*
X213054819Y-107099999D02*
X213102438Y-106957142D01*
X213102438Y-106957142D02*
X213197676Y-106861904D01*
X213197676Y-106861904D02*
X213292914Y-106814285D01*
X213292914Y-106814285D02*
X213483390Y-106766666D01*
X213483390Y-106766666D02*
X213626247Y-106766666D01*
X213626247Y-106766666D02*
X213816723Y-106814285D01*
X213816723Y-106814285D02*
X213911961Y-106861904D01*
X213911961Y-106861904D02*
X214007200Y-106957142D01*
X214007200Y-106957142D02*
X214054819Y-107099999D01*
X214054819Y-107099999D02*
X214054819Y-107338094D01*
X213388152Y-105909523D02*
X214054819Y-105909523D01*
X213007200Y-106147618D02*
X213721485Y-106385713D01*
X213721485Y-106385713D02*
X213721485Y-105766666D01*
D12*
X224085714Y-40365935D02*
X223819047Y-39984982D01*
X223628571Y-40365935D02*
X223628571Y-39565935D01*
X223628571Y-39565935D02*
X223933333Y-39565935D01*
X223933333Y-39565935D02*
X224009523Y-39604030D01*
X224009523Y-39604030D02*
X224047618Y-39642125D01*
X224047618Y-39642125D02*
X224085714Y-39718316D01*
X224085714Y-39718316D02*
X224085714Y-39832601D01*
X224085714Y-39832601D02*
X224047618Y-39908792D01*
X224047618Y-39908792D02*
X224009523Y-39946887D01*
X224009523Y-39946887D02*
X223933333Y-39984982D01*
X223933333Y-39984982D02*
X223628571Y-39984982D01*
X224847618Y-40365935D02*
X224390475Y-40365935D01*
X224619047Y-40365935D02*
X224619047Y-39565935D01*
X224619047Y-39565935D02*
X224542856Y-39680220D01*
X224542856Y-39680220D02*
X224466666Y-39756411D01*
X224466666Y-39756411D02*
X224390475Y-39794506D01*
X225533333Y-39565935D02*
X225380952Y-39565935D01*
X225380952Y-39565935D02*
X225304761Y-39604030D01*
X225304761Y-39604030D02*
X225266666Y-39642125D01*
X225266666Y-39642125D02*
X225190476Y-39756411D01*
X225190476Y-39756411D02*
X225152380Y-39908792D01*
X225152380Y-39908792D02*
X225152380Y-40213554D01*
X225152380Y-40213554D02*
X225190476Y-40289744D01*
X225190476Y-40289744D02*
X225228571Y-40327840D01*
X225228571Y-40327840D02*
X225304761Y-40365935D01*
X225304761Y-40365935D02*
X225457142Y-40365935D01*
X225457142Y-40365935D02*
X225533333Y-40327840D01*
X225533333Y-40327840D02*
X225571428Y-40289744D01*
X225571428Y-40289744D02*
X225609523Y-40213554D01*
X225609523Y-40213554D02*
X225609523Y-40023078D01*
X225609523Y-40023078D02*
X225571428Y-39946887D01*
X225571428Y-39946887D02*
X225533333Y-39908792D01*
X225533333Y-39908792D02*
X225457142Y-39870697D01*
X225457142Y-39870697D02*
X225304761Y-39870697D01*
X225304761Y-39870697D02*
X225228571Y-39908792D01*
X225228571Y-39908792D02*
X225190476Y-39946887D01*
X225190476Y-39946887D02*
X225152380Y-40023078D01*
D11*
X242581905Y-56084819D02*
X242581905Y-55084819D01*
X242581905Y-55084819D02*
X242820000Y-55084819D01*
X242820000Y-55084819D02*
X242962857Y-55132438D01*
X242962857Y-55132438D02*
X243058095Y-55227676D01*
X243058095Y-55227676D02*
X243105714Y-55322914D01*
X243105714Y-55322914D02*
X243153333Y-55513390D01*
X243153333Y-55513390D02*
X243153333Y-55656247D01*
X243153333Y-55656247D02*
X243105714Y-55846723D01*
X243105714Y-55846723D02*
X243058095Y-55941961D01*
X243058095Y-55941961D02*
X242962857Y-56037200D01*
X242962857Y-56037200D02*
X242820000Y-56084819D01*
X242820000Y-56084819D02*
X242581905Y-56084819D01*
X244010476Y-55084819D02*
X243820000Y-55084819D01*
X243820000Y-55084819D02*
X243724762Y-55132438D01*
X243724762Y-55132438D02*
X243677143Y-55180057D01*
X243677143Y-55180057D02*
X243581905Y-55322914D01*
X243581905Y-55322914D02*
X243534286Y-55513390D01*
X243534286Y-55513390D02*
X243534286Y-55894342D01*
X243534286Y-55894342D02*
X243581905Y-55989580D01*
X243581905Y-55989580D02*
X243629524Y-56037200D01*
X243629524Y-56037200D02*
X243724762Y-56084819D01*
X243724762Y-56084819D02*
X243915238Y-56084819D01*
X243915238Y-56084819D02*
X244010476Y-56037200D01*
X244010476Y-56037200D02*
X244058095Y-55989580D01*
X244058095Y-55989580D02*
X244105714Y-55894342D01*
X244105714Y-55894342D02*
X244105714Y-55656247D01*
X244105714Y-55656247D02*
X244058095Y-55561009D01*
X244058095Y-55561009D02*
X244010476Y-55513390D01*
X244010476Y-55513390D02*
X243915238Y-55465771D01*
X243915238Y-55465771D02*
X243724762Y-55465771D01*
X243724762Y-55465771D02*
X243629524Y-55513390D01*
X243629524Y-55513390D02*
X243581905Y-55561009D01*
X243581905Y-55561009D02*
X243534286Y-55656247D01*
X237978095Y-56454819D02*
X237978095Y-55454819D01*
X238549523Y-56454819D02*
X238120952Y-55883390D01*
X238549523Y-55454819D02*
X237978095Y-56026247D01*
X220838095Y-80854819D02*
X220838095Y-81664342D01*
X220838095Y-81664342D02*
X220885714Y-81759580D01*
X220885714Y-81759580D02*
X220933333Y-81807200D01*
X220933333Y-81807200D02*
X221028571Y-81854819D01*
X221028571Y-81854819D02*
X221219047Y-81854819D01*
X221219047Y-81854819D02*
X221314285Y-81807200D01*
X221314285Y-81807200D02*
X221361904Y-81759580D01*
X221361904Y-81759580D02*
X221409523Y-81664342D01*
X221409523Y-81664342D02*
X221409523Y-80854819D01*
X222361904Y-80854819D02*
X221885714Y-80854819D01*
X221885714Y-80854819D02*
X221838095Y-81331009D01*
X221838095Y-81331009D02*
X221885714Y-81283390D01*
X221885714Y-81283390D02*
X221980952Y-81235771D01*
X221980952Y-81235771D02*
X222219047Y-81235771D01*
X222219047Y-81235771D02*
X222314285Y-81283390D01*
X222314285Y-81283390D02*
X222361904Y-81331009D01*
X222361904Y-81331009D02*
X222409523Y-81426247D01*
X222409523Y-81426247D02*
X222409523Y-81664342D01*
X222409523Y-81664342D02*
X222361904Y-81759580D01*
X222361904Y-81759580D02*
X222314285Y-81807200D01*
X222314285Y-81807200D02*
X222219047Y-81854819D01*
X222219047Y-81854819D02*
X221980952Y-81854819D01*
X221980952Y-81854819D02*
X221885714Y-81807200D01*
X221885714Y-81807200D02*
X221838095Y-81759580D01*
X207554819Y-107758094D02*
X206554819Y-107758094D01*
X206554819Y-107758094D02*
X206554819Y-107519999D01*
X206554819Y-107519999D02*
X206602438Y-107377142D01*
X206602438Y-107377142D02*
X206697676Y-107281904D01*
X206697676Y-107281904D02*
X206792914Y-107234285D01*
X206792914Y-107234285D02*
X206983390Y-107186666D01*
X206983390Y-107186666D02*
X207126247Y-107186666D01*
X207126247Y-107186666D02*
X207316723Y-107234285D01*
X207316723Y-107234285D02*
X207411961Y-107281904D01*
X207411961Y-107281904D02*
X207507200Y-107377142D01*
X207507200Y-107377142D02*
X207554819Y-107519999D01*
X207554819Y-107519999D02*
X207554819Y-107758094D01*
X206554819Y-106853332D02*
X206554819Y-106234285D01*
X206554819Y-106234285D02*
X206935771Y-106567618D01*
X206935771Y-106567618D02*
X206935771Y-106424761D01*
X206935771Y-106424761D02*
X206983390Y-106329523D01*
X206983390Y-106329523D02*
X207031009Y-106281904D01*
X207031009Y-106281904D02*
X207126247Y-106234285D01*
X207126247Y-106234285D02*
X207364342Y-106234285D01*
X207364342Y-106234285D02*
X207459580Y-106281904D01*
X207459580Y-106281904D02*
X207507200Y-106329523D01*
X207507200Y-106329523D02*
X207554819Y-106424761D01*
X207554819Y-106424761D02*
X207554819Y-106710475D01*
X207554819Y-106710475D02*
X207507200Y-106805713D01*
X207507200Y-106805713D02*
X207459580Y-106853332D01*
X227704761Y-80594819D02*
X227371428Y-80118628D01*
X227133333Y-80594819D02*
X227133333Y-79594819D01*
X227133333Y-79594819D02*
X227514285Y-79594819D01*
X227514285Y-79594819D02*
X227609523Y-79642438D01*
X227609523Y-79642438D02*
X227657142Y-79690057D01*
X227657142Y-79690057D02*
X227704761Y-79785295D01*
X227704761Y-79785295D02*
X227704761Y-79928152D01*
X227704761Y-79928152D02*
X227657142Y-80023390D01*
X227657142Y-80023390D02*
X227609523Y-80071009D01*
X227609523Y-80071009D02*
X227514285Y-80118628D01*
X227514285Y-80118628D02*
X227133333Y-80118628D01*
X227990476Y-79594819D02*
X228323809Y-80594819D01*
X228323809Y-80594819D02*
X228657142Y-79594819D01*
X228895238Y-79594819D02*
X229514285Y-79594819D01*
X229514285Y-79594819D02*
X229180952Y-79975771D01*
X229180952Y-79975771D02*
X229323809Y-79975771D01*
X229323809Y-79975771D02*
X229419047Y-80023390D01*
X229419047Y-80023390D02*
X229466666Y-80071009D01*
X229466666Y-80071009D02*
X229514285Y-80166247D01*
X229514285Y-80166247D02*
X229514285Y-80404342D01*
X229514285Y-80404342D02*
X229466666Y-80499580D01*
X229466666Y-80499580D02*
X229419047Y-80547200D01*
X229419047Y-80547200D02*
X229323809Y-80594819D01*
X229323809Y-80594819D02*
X229038095Y-80594819D01*
X229038095Y-80594819D02*
X228942857Y-80547200D01*
X228942857Y-80547200D02*
X228895238Y-80499580D01*
X216583333Y-99459580D02*
X216535714Y-99507200D01*
X216535714Y-99507200D02*
X216392857Y-99554819D01*
X216392857Y-99554819D02*
X216297619Y-99554819D01*
X216297619Y-99554819D02*
X216154762Y-99507200D01*
X216154762Y-99507200D02*
X216059524Y-99411961D01*
X216059524Y-99411961D02*
X216011905Y-99316723D01*
X216011905Y-99316723D02*
X215964286Y-99126247D01*
X215964286Y-99126247D02*
X215964286Y-98983390D01*
X215964286Y-98983390D02*
X216011905Y-98792914D01*
X216011905Y-98792914D02*
X216059524Y-98697676D01*
X216059524Y-98697676D02*
X216154762Y-98602438D01*
X216154762Y-98602438D02*
X216297619Y-98554819D01*
X216297619Y-98554819D02*
X216392857Y-98554819D01*
X216392857Y-98554819D02*
X216535714Y-98602438D01*
X216535714Y-98602438D02*
X216583333Y-98650057D01*
X217440476Y-98554819D02*
X217250000Y-98554819D01*
X217250000Y-98554819D02*
X217154762Y-98602438D01*
X217154762Y-98602438D02*
X217107143Y-98650057D01*
X217107143Y-98650057D02*
X217011905Y-98792914D01*
X217011905Y-98792914D02*
X216964286Y-98983390D01*
X216964286Y-98983390D02*
X216964286Y-99364342D01*
X216964286Y-99364342D02*
X217011905Y-99459580D01*
X217011905Y-99459580D02*
X217059524Y-99507200D01*
X217059524Y-99507200D02*
X217154762Y-99554819D01*
X217154762Y-99554819D02*
X217345238Y-99554819D01*
X217345238Y-99554819D02*
X217440476Y-99507200D01*
X217440476Y-99507200D02*
X217488095Y-99459580D01*
X217488095Y-99459580D02*
X217535714Y-99364342D01*
X217535714Y-99364342D02*
X217535714Y-99126247D01*
X217535714Y-99126247D02*
X217488095Y-99031009D01*
X217488095Y-99031009D02*
X217440476Y-98983390D01*
X217440476Y-98983390D02*
X217345238Y-98935771D01*
X217345238Y-98935771D02*
X217154762Y-98935771D01*
X217154762Y-98935771D02*
X217059524Y-98983390D01*
X217059524Y-98983390D02*
X217011905Y-99031009D01*
X217011905Y-99031009D02*
X216964286Y-99126247D01*
X232959580Y-88942857D02*
X233007200Y-88990476D01*
X233007200Y-88990476D02*
X233054819Y-89133333D01*
X233054819Y-89133333D02*
X233054819Y-89228571D01*
X233054819Y-89228571D02*
X233007200Y-89371428D01*
X233007200Y-89371428D02*
X232911961Y-89466666D01*
X232911961Y-89466666D02*
X232816723Y-89514285D01*
X232816723Y-89514285D02*
X232626247Y-89561904D01*
X232626247Y-89561904D02*
X232483390Y-89561904D01*
X232483390Y-89561904D02*
X232292914Y-89514285D01*
X232292914Y-89514285D02*
X232197676Y-89466666D01*
X232197676Y-89466666D02*
X232102438Y-89371428D01*
X232102438Y-89371428D02*
X232054819Y-89228571D01*
X232054819Y-89228571D02*
X232054819Y-89133333D01*
X232054819Y-89133333D02*
X232102438Y-88990476D01*
X232102438Y-88990476D02*
X232150057Y-88942857D01*
X233054819Y-87990476D02*
X233054819Y-88561904D01*
X233054819Y-88276190D02*
X232054819Y-88276190D01*
X232054819Y-88276190D02*
X232197676Y-88371428D01*
X232197676Y-88371428D02*
X232292914Y-88466666D01*
X232292914Y-88466666D02*
X232340533Y-88561904D01*
X233054819Y-87514285D02*
X233054819Y-87323809D01*
X233054819Y-87323809D02*
X233007200Y-87228571D01*
X233007200Y-87228571D02*
X232959580Y-87180952D01*
X232959580Y-87180952D02*
X232816723Y-87085714D01*
X232816723Y-87085714D02*
X232626247Y-87038095D01*
X232626247Y-87038095D02*
X232245295Y-87038095D01*
X232245295Y-87038095D02*
X232150057Y-87085714D01*
X232150057Y-87085714D02*
X232102438Y-87133333D01*
X232102438Y-87133333D02*
X232054819Y-87228571D01*
X232054819Y-87228571D02*
X232054819Y-87419047D01*
X232054819Y-87419047D02*
X232102438Y-87514285D01*
X232102438Y-87514285D02*
X232150057Y-87561904D01*
X232150057Y-87561904D02*
X232245295Y-87609523D01*
X232245295Y-87609523D02*
X232483390Y-87609523D01*
X232483390Y-87609523D02*
X232578628Y-87561904D01*
X232578628Y-87561904D02*
X232626247Y-87514285D01*
X232626247Y-87514285D02*
X232673866Y-87419047D01*
X232673866Y-87419047D02*
X232673866Y-87228571D01*
X232673866Y-87228571D02*
X232626247Y-87133333D01*
X232626247Y-87133333D02*
X232578628Y-87085714D01*
X232578628Y-87085714D02*
X232483390Y-87038095D01*
X210854819Y-107338094D02*
X209854819Y-107338094D01*
X209854819Y-107338094D02*
X209854819Y-107099999D01*
X209854819Y-107099999D02*
X209902438Y-106957142D01*
X209902438Y-106957142D02*
X209997676Y-106861904D01*
X209997676Y-106861904D02*
X210092914Y-106814285D01*
X210092914Y-106814285D02*
X210283390Y-106766666D01*
X210283390Y-106766666D02*
X210426247Y-106766666D01*
X210426247Y-106766666D02*
X210616723Y-106814285D01*
X210616723Y-106814285D02*
X210711961Y-106861904D01*
X210711961Y-106861904D02*
X210807200Y-106957142D01*
X210807200Y-106957142D02*
X210854819Y-107099999D01*
X210854819Y-107099999D02*
X210854819Y-107338094D01*
X209950057Y-106385713D02*
X209902438Y-106338094D01*
X209902438Y-106338094D02*
X209854819Y-106242856D01*
X209854819Y-106242856D02*
X209854819Y-106004761D01*
X209854819Y-106004761D02*
X209902438Y-105909523D01*
X209902438Y-105909523D02*
X209950057Y-105861904D01*
X209950057Y-105861904D02*
X210045295Y-105814285D01*
X210045295Y-105814285D02*
X210140533Y-105814285D01*
X210140533Y-105814285D02*
X210283390Y-105861904D01*
X210283390Y-105861904D02*
X210854819Y-106433332D01*
X210854819Y-106433332D02*
X210854819Y-105814285D01*
X198233333Y-87759580D02*
X198185714Y-87807200D01*
X198185714Y-87807200D02*
X198042857Y-87854819D01*
X198042857Y-87854819D02*
X197947619Y-87854819D01*
X197947619Y-87854819D02*
X197804762Y-87807200D01*
X197804762Y-87807200D02*
X197709524Y-87711961D01*
X197709524Y-87711961D02*
X197661905Y-87616723D01*
X197661905Y-87616723D02*
X197614286Y-87426247D01*
X197614286Y-87426247D02*
X197614286Y-87283390D01*
X197614286Y-87283390D02*
X197661905Y-87092914D01*
X197661905Y-87092914D02*
X197709524Y-86997676D01*
X197709524Y-86997676D02*
X197804762Y-86902438D01*
X197804762Y-86902438D02*
X197947619Y-86854819D01*
X197947619Y-86854819D02*
X198042857Y-86854819D01*
X198042857Y-86854819D02*
X198185714Y-86902438D01*
X198185714Y-86902438D02*
X198233333Y-86950057D01*
X198566667Y-86854819D02*
X199233333Y-86854819D01*
X199233333Y-86854819D02*
X198804762Y-87854819D01*
X204254819Y-107758094D02*
X203254819Y-107758094D01*
X203254819Y-107758094D02*
X203254819Y-107519999D01*
X203254819Y-107519999D02*
X203302438Y-107377142D01*
X203302438Y-107377142D02*
X203397676Y-107281904D01*
X203397676Y-107281904D02*
X203492914Y-107234285D01*
X203492914Y-107234285D02*
X203683390Y-107186666D01*
X203683390Y-107186666D02*
X203826247Y-107186666D01*
X203826247Y-107186666D02*
X204016723Y-107234285D01*
X204016723Y-107234285D02*
X204111961Y-107281904D01*
X204111961Y-107281904D02*
X204207200Y-107377142D01*
X204207200Y-107377142D02*
X204254819Y-107519999D01*
X204254819Y-107519999D02*
X204254819Y-107758094D01*
X204254819Y-106234285D02*
X204254819Y-106805713D01*
X204254819Y-106519999D02*
X203254819Y-106519999D01*
X203254819Y-106519999D02*
X203397676Y-106615237D01*
X203397676Y-106615237D02*
X203492914Y-106710475D01*
X203492914Y-106710475D02*
X203540533Y-106805713D01*
D10*
X197142580Y-98666666D02*
X196428295Y-98666666D01*
X196428295Y-98666666D02*
X196285438Y-98619047D01*
X196285438Y-98619047D02*
X196190200Y-98523809D01*
X196190200Y-98523809D02*
X196142580Y-98380952D01*
X196142580Y-98380952D02*
X196142580Y-98285714D01*
X196142580Y-99666666D02*
X196142580Y-99095238D01*
X196142580Y-99380952D02*
X197142580Y-99380952D01*
X197142580Y-99380952D02*
X196999723Y-99285714D01*
X196999723Y-99285714D02*
X196904485Y-99190476D01*
X196904485Y-99190476D02*
X196856866Y-99095238D01*
D11*
X207728095Y-94464819D02*
X207728095Y-95274342D01*
X207728095Y-95274342D02*
X207775714Y-95369580D01*
X207775714Y-95369580D02*
X207823333Y-95417200D01*
X207823333Y-95417200D02*
X207918571Y-95464819D01*
X207918571Y-95464819D02*
X208109047Y-95464819D01*
X208109047Y-95464819D02*
X208204285Y-95417200D01*
X208204285Y-95417200D02*
X208251904Y-95369580D01*
X208251904Y-95369580D02*
X208299523Y-95274342D01*
X208299523Y-95274342D02*
X208299523Y-94464819D01*
X208728095Y-94560057D02*
X208775714Y-94512438D01*
X208775714Y-94512438D02*
X208870952Y-94464819D01*
X208870952Y-94464819D02*
X209109047Y-94464819D01*
X209109047Y-94464819D02*
X209204285Y-94512438D01*
X209204285Y-94512438D02*
X209251904Y-94560057D01*
X209251904Y-94560057D02*
X209299523Y-94655295D01*
X209299523Y-94655295D02*
X209299523Y-94750533D01*
X209299523Y-94750533D02*
X209251904Y-94893390D01*
X209251904Y-94893390D02*
X208680476Y-95464819D01*
X208680476Y-95464819D02*
X209299523Y-95464819D01*
X209183333Y-88359580D02*
X209135714Y-88407200D01*
X209135714Y-88407200D02*
X208992857Y-88454819D01*
X208992857Y-88454819D02*
X208897619Y-88454819D01*
X208897619Y-88454819D02*
X208754762Y-88407200D01*
X208754762Y-88407200D02*
X208659524Y-88311961D01*
X208659524Y-88311961D02*
X208611905Y-88216723D01*
X208611905Y-88216723D02*
X208564286Y-88026247D01*
X208564286Y-88026247D02*
X208564286Y-87883390D01*
X208564286Y-87883390D02*
X208611905Y-87692914D01*
X208611905Y-87692914D02*
X208659524Y-87597676D01*
X208659524Y-87597676D02*
X208754762Y-87502438D01*
X208754762Y-87502438D02*
X208897619Y-87454819D01*
X208897619Y-87454819D02*
X208992857Y-87454819D01*
X208992857Y-87454819D02*
X209135714Y-87502438D01*
X209135714Y-87502438D02*
X209183333Y-87550057D01*
X209754762Y-87883390D02*
X209659524Y-87835771D01*
X209659524Y-87835771D02*
X209611905Y-87788152D01*
X209611905Y-87788152D02*
X209564286Y-87692914D01*
X209564286Y-87692914D02*
X209564286Y-87645295D01*
X209564286Y-87645295D02*
X209611905Y-87550057D01*
X209611905Y-87550057D02*
X209659524Y-87502438D01*
X209659524Y-87502438D02*
X209754762Y-87454819D01*
X209754762Y-87454819D02*
X209945238Y-87454819D01*
X209945238Y-87454819D02*
X210040476Y-87502438D01*
X210040476Y-87502438D02*
X210088095Y-87550057D01*
X210088095Y-87550057D02*
X210135714Y-87645295D01*
X210135714Y-87645295D02*
X210135714Y-87692914D01*
X210135714Y-87692914D02*
X210088095Y-87788152D01*
X210088095Y-87788152D02*
X210040476Y-87835771D01*
X210040476Y-87835771D02*
X209945238Y-87883390D01*
X209945238Y-87883390D02*
X209754762Y-87883390D01*
X209754762Y-87883390D02*
X209659524Y-87931009D01*
X209659524Y-87931009D02*
X209611905Y-87978628D01*
X209611905Y-87978628D02*
X209564286Y-88073866D01*
X209564286Y-88073866D02*
X209564286Y-88264342D01*
X209564286Y-88264342D02*
X209611905Y-88359580D01*
X209611905Y-88359580D02*
X209659524Y-88407200D01*
X209659524Y-88407200D02*
X209754762Y-88454819D01*
X209754762Y-88454819D02*
X209945238Y-88454819D01*
X209945238Y-88454819D02*
X210040476Y-88407200D01*
X210040476Y-88407200D02*
X210088095Y-88359580D01*
X210088095Y-88359580D02*
X210135714Y-88264342D01*
X210135714Y-88264342D02*
X210135714Y-88073866D01*
X210135714Y-88073866D02*
X210088095Y-87978628D01*
X210088095Y-87978628D02*
X210040476Y-87931009D01*
X210040476Y-87931009D02*
X209945238Y-87883390D01*
X215226295Y-56343809D02*
X214426295Y-56343809D01*
X214426295Y-56343809D02*
X214997723Y-56077143D01*
X214997723Y-56077143D02*
X214426295Y-55810476D01*
X214426295Y-55810476D02*
X215226295Y-55810476D01*
X215226295Y-55429523D02*
X214426295Y-55429523D01*
X215226295Y-55048571D02*
X214426295Y-55048571D01*
X214426295Y-55048571D02*
X214997723Y-54781905D01*
X214997723Y-54781905D02*
X214426295Y-54515238D01*
X214426295Y-54515238D02*
X215226295Y-54515238D01*
X214426295Y-54210476D02*
X215226295Y-53677142D01*
X214426295Y-53677142D02*
X215226295Y-54210476D01*
X215226295Y-52915237D02*
X214845342Y-53181904D01*
X215226295Y-53372380D02*
X214426295Y-53372380D01*
X214426295Y-53372380D02*
X214426295Y-53067618D01*
X214426295Y-53067618D02*
X214464390Y-52991428D01*
X214464390Y-52991428D02*
X214502485Y-52953333D01*
X214502485Y-52953333D02*
X214578676Y-52915237D01*
X214578676Y-52915237D02*
X214692961Y-52915237D01*
X214692961Y-52915237D02*
X214769152Y-52953333D01*
X214769152Y-52953333D02*
X214807247Y-52991428D01*
X214807247Y-52991428D02*
X214845342Y-53067618D01*
X214845342Y-53067618D02*
X214845342Y-53372380D01*
X214426295Y-52686666D02*
X214426295Y-52229523D01*
X215226295Y-52458095D02*
X214426295Y-52458095D01*
X215226295Y-51543809D02*
X215226295Y-52000952D01*
X215226295Y-51772380D02*
X214426295Y-51772380D01*
X214426295Y-51772380D02*
X214540580Y-51848571D01*
X214540580Y-51848571D02*
X214616771Y-51924761D01*
X214616771Y-51924761D02*
X214654866Y-52000952D01*
X214426295Y-51048570D02*
X214426295Y-50972380D01*
X214426295Y-50972380D02*
X214464390Y-50896189D01*
X214464390Y-50896189D02*
X214502485Y-50858094D01*
X214502485Y-50858094D02*
X214578676Y-50819999D01*
X214578676Y-50819999D02*
X214731057Y-50781904D01*
X214731057Y-50781904D02*
X214921533Y-50781904D01*
X214921533Y-50781904D02*
X215073914Y-50819999D01*
X215073914Y-50819999D02*
X215150104Y-50858094D01*
X215150104Y-50858094D02*
X215188200Y-50896189D01*
X215188200Y-50896189D02*
X215226295Y-50972380D01*
X215226295Y-50972380D02*
X215226295Y-51048570D01*
X215226295Y-51048570D02*
X215188200Y-51124761D01*
X215188200Y-51124761D02*
X215150104Y-51162856D01*
X215150104Y-51162856D02*
X215073914Y-51200951D01*
X215073914Y-51200951D02*
X214921533Y-51239047D01*
X214921533Y-51239047D02*
X214731057Y-51239047D01*
X214731057Y-51239047D02*
X214578676Y-51200951D01*
X214578676Y-51200951D02*
X214502485Y-51162856D01*
X214502485Y-51162856D02*
X214464390Y-51124761D01*
X214464390Y-51124761D02*
X214426295Y-51048570D01*
X214426295Y-50096189D02*
X214426295Y-50248570D01*
X214426295Y-50248570D02*
X214464390Y-50324761D01*
X214464390Y-50324761D02*
X214502485Y-50362856D01*
X214502485Y-50362856D02*
X214616771Y-50439046D01*
X214616771Y-50439046D02*
X214769152Y-50477142D01*
X214769152Y-50477142D02*
X215073914Y-50477142D01*
X215073914Y-50477142D02*
X215150104Y-50439046D01*
X215150104Y-50439046D02*
X215188200Y-50400951D01*
X215188200Y-50400951D02*
X215226295Y-50324761D01*
X215226295Y-50324761D02*
X215226295Y-50172380D01*
X215226295Y-50172380D02*
X215188200Y-50096189D01*
X215188200Y-50096189D02*
X215150104Y-50058094D01*
X215150104Y-50058094D02*
X215073914Y-50019999D01*
X215073914Y-50019999D02*
X214883438Y-50019999D01*
X214883438Y-50019999D02*
X214807247Y-50058094D01*
X214807247Y-50058094D02*
X214769152Y-50096189D01*
X214769152Y-50096189D02*
X214731057Y-50172380D01*
X214731057Y-50172380D02*
X214731057Y-50324761D01*
X214731057Y-50324761D02*
X214769152Y-50400951D01*
X214769152Y-50400951D02*
X214807247Y-50439046D01*
X214807247Y-50439046D02*
X214883438Y-50477142D01*
X214502485Y-49715237D02*
X214464390Y-49677141D01*
X214464390Y-49677141D02*
X214426295Y-49600951D01*
X214426295Y-49600951D02*
X214426295Y-49410475D01*
X214426295Y-49410475D02*
X214464390Y-49334284D01*
X214464390Y-49334284D02*
X214502485Y-49296189D01*
X214502485Y-49296189D02*
X214578676Y-49258094D01*
X214578676Y-49258094D02*
X214654866Y-49258094D01*
X214654866Y-49258094D02*
X214769152Y-49296189D01*
X214769152Y-49296189D02*
X215226295Y-49753332D01*
X215226295Y-49753332D02*
X215226295Y-49258094D01*
X216750295Y-54419999D02*
X215950295Y-54419999D01*
X215950295Y-54419999D02*
X215950295Y-54229523D01*
X215950295Y-54229523D02*
X215988390Y-54115237D01*
X215988390Y-54115237D02*
X216064580Y-54039047D01*
X216064580Y-54039047D02*
X216140771Y-54000952D01*
X216140771Y-54000952D02*
X216293152Y-53962856D01*
X216293152Y-53962856D02*
X216407438Y-53962856D01*
X216407438Y-53962856D02*
X216559819Y-54000952D01*
X216559819Y-54000952D02*
X216636009Y-54039047D01*
X216636009Y-54039047D02*
X216712200Y-54115237D01*
X216712200Y-54115237D02*
X216750295Y-54229523D01*
X216750295Y-54229523D02*
X216750295Y-54419999D01*
X215950295Y-53734285D02*
X216750295Y-53467618D01*
X216750295Y-53467618D02*
X215950295Y-53200952D01*
X216750295Y-52553333D02*
X216750295Y-52934285D01*
X216750295Y-52934285D02*
X215950295Y-52934285D01*
X215950295Y-51943809D02*
X215950295Y-52096190D01*
X215950295Y-52096190D02*
X215988390Y-52172381D01*
X215988390Y-52172381D02*
X216026485Y-52210476D01*
X216026485Y-52210476D02*
X216140771Y-52286666D01*
X216140771Y-52286666D02*
X216293152Y-52324762D01*
X216293152Y-52324762D02*
X216597914Y-52324762D01*
X216597914Y-52324762D02*
X216674104Y-52286666D01*
X216674104Y-52286666D02*
X216712200Y-52248571D01*
X216712200Y-52248571D02*
X216750295Y-52172381D01*
X216750295Y-52172381D02*
X216750295Y-52020000D01*
X216750295Y-52020000D02*
X216712200Y-51943809D01*
X216712200Y-51943809D02*
X216674104Y-51905714D01*
X216674104Y-51905714D02*
X216597914Y-51867619D01*
X216597914Y-51867619D02*
X216407438Y-51867619D01*
X216407438Y-51867619D02*
X216331247Y-51905714D01*
X216331247Y-51905714D02*
X216293152Y-51943809D01*
X216293152Y-51943809D02*
X216255057Y-52020000D01*
X216255057Y-52020000D02*
X216255057Y-52172381D01*
X216255057Y-52172381D02*
X216293152Y-52248571D01*
X216293152Y-52248571D02*
X216331247Y-52286666D01*
X216331247Y-52286666D02*
X216407438Y-52324762D01*
X216521723Y-51562857D02*
X216521723Y-51181904D01*
X216750295Y-51639047D02*
X215950295Y-51372380D01*
X215950295Y-51372380D02*
X216750295Y-51105714D01*
X233966667Y-105617200D02*
X234109524Y-105664819D01*
X234109524Y-105664819D02*
X234347619Y-105664819D01*
X234347619Y-105664819D02*
X234442857Y-105617200D01*
X234442857Y-105617200D02*
X234490476Y-105569580D01*
X234490476Y-105569580D02*
X234538095Y-105474342D01*
X234538095Y-105474342D02*
X234538095Y-105379104D01*
X234538095Y-105379104D02*
X234490476Y-105283866D01*
X234490476Y-105283866D02*
X234442857Y-105236247D01*
X234442857Y-105236247D02*
X234347619Y-105188628D01*
X234347619Y-105188628D02*
X234157143Y-105141009D01*
X234157143Y-105141009D02*
X234061905Y-105093390D01*
X234061905Y-105093390D02*
X234014286Y-105045771D01*
X234014286Y-105045771D02*
X233966667Y-104950533D01*
X233966667Y-104950533D02*
X233966667Y-104855295D01*
X233966667Y-104855295D02*
X234014286Y-104760057D01*
X234014286Y-104760057D02*
X234061905Y-104712438D01*
X234061905Y-104712438D02*
X234157143Y-104664819D01*
X234157143Y-104664819D02*
X234395238Y-104664819D01*
X234395238Y-104664819D02*
X234538095Y-104712438D01*
X234871429Y-104664819D02*
X235109524Y-105664819D01*
X235109524Y-105664819D02*
X235300000Y-104950533D01*
X235300000Y-104950533D02*
X235490476Y-105664819D01*
X235490476Y-105664819D02*
X235728572Y-104664819D01*
X236633333Y-105664819D02*
X236061905Y-105664819D01*
X236347619Y-105664819D02*
X236347619Y-104664819D01*
X236347619Y-104664819D02*
X236252381Y-104807676D01*
X236252381Y-104807676D02*
X236157143Y-104902914D01*
X236157143Y-104902914D02*
X236061905Y-104950533D01*
X246984819Y-78058094D02*
X245984819Y-78058094D01*
X245984819Y-78058094D02*
X245984819Y-77819999D01*
X245984819Y-77819999D02*
X246032438Y-77677142D01*
X246032438Y-77677142D02*
X246127676Y-77581904D01*
X246127676Y-77581904D02*
X246222914Y-77534285D01*
X246222914Y-77534285D02*
X246413390Y-77486666D01*
X246413390Y-77486666D02*
X246556247Y-77486666D01*
X246556247Y-77486666D02*
X246746723Y-77534285D01*
X246746723Y-77534285D02*
X246841961Y-77581904D01*
X246841961Y-77581904D02*
X246937200Y-77677142D01*
X246937200Y-77677142D02*
X246984819Y-77819999D01*
X246984819Y-77819999D02*
X246984819Y-78058094D01*
X245984819Y-76581904D02*
X245984819Y-77058094D01*
X245984819Y-77058094D02*
X246461009Y-77105713D01*
X246461009Y-77105713D02*
X246413390Y-77058094D01*
X246413390Y-77058094D02*
X246365771Y-76962856D01*
X246365771Y-76962856D02*
X246365771Y-76724761D01*
X246365771Y-76724761D02*
X246413390Y-76629523D01*
X246413390Y-76629523D02*
X246461009Y-76581904D01*
X246461009Y-76581904D02*
X246556247Y-76534285D01*
X246556247Y-76534285D02*
X246794342Y-76534285D01*
X246794342Y-76534285D02*
X246889580Y-76581904D01*
X246889580Y-76581904D02*
X246937200Y-76629523D01*
X246937200Y-76629523D02*
X246984819Y-76724761D01*
X246984819Y-76724761D02*
X246984819Y-76962856D01*
X246984819Y-76962856D02*
X246937200Y-77058094D01*
X246937200Y-77058094D02*
X246889580Y-77105713D01*
X247354819Y-82661904D02*
X246354819Y-82661904D01*
X247354819Y-82090476D02*
X246783390Y-82519047D01*
X246354819Y-82090476D02*
X246926247Y-82661904D01*
D13*
%TO.C,C9*%
X206170000Y-79920000D02*
X202430000Y-79920000D01*
X206170000Y-72480000D02*
X206170000Y-79920000D01*
X202430000Y-79920000D02*
X202430000Y-72480000D01*
X202430000Y-72480000D02*
X206170000Y-72480000D01*
%TO.C,J4*%
X240490000Y-83910000D02*
X240490000Y-82800000D01*
X241600000Y-83910000D02*
X240490000Y-83910000D01*
X242600000Y-83910000D02*
X244710000Y-83910000D01*
X242600000Y-83910000D02*
X242600000Y-81690000D01*
X244710000Y-83910000D02*
X244710000Y-81690000D01*
X242600000Y-81690000D02*
X244710000Y-81690000D01*
%TO.C,J3*%
X235710000Y-97110000D02*
X234600000Y-97110000D01*
X235710000Y-96000000D02*
X235710000Y-97110000D01*
X235710000Y-95000000D02*
X235710000Y-92890000D01*
X235710000Y-95000000D02*
X233490000Y-95000000D01*
X235710000Y-92890000D02*
X233490000Y-92890000D01*
X233490000Y-95000000D02*
X233490000Y-92890000D01*
%TO.C,J2*%
X220010000Y-99790000D02*
X220010000Y-100900000D01*
X218900000Y-99790000D02*
X220010000Y-99790000D01*
X217900000Y-99790000D02*
X215790000Y-99790000D01*
X217900000Y-99790000D02*
X217900000Y-102010000D01*
X215790000Y-99790000D02*
X215790000Y-102010000D01*
X217900000Y-102010000D02*
X215790000Y-102010000D01*
%TO.C,C40*%
X204135000Y-41538748D02*
X204135000Y-42061252D01*
X202665000Y-41538748D02*
X202665000Y-42061252D01*
%TO.C,C5*%
X203320000Y-93000000D02*
G75*
G02*
X196780000Y-93000000I-3270000J0D01*
G01*
X196780000Y-93000000D02*
G75*
G02*
X203320000Y-93000000I3270000J0D01*
G01*
%TO.C,C39*%
X222388748Y-97965000D02*
X222911252Y-97965000D01*
X222388748Y-99435000D02*
X222911252Y-99435000D01*
%TO.C,C38*%
X223935000Y-110038748D02*
X223935000Y-110561252D01*
X222465000Y-110038748D02*
X222465000Y-110561252D01*
%TO.C,C37*%
X222565000Y-102411252D02*
X222565000Y-101888748D01*
X224035000Y-102411252D02*
X224035000Y-101888748D01*
%TO.C,C24*%
X241820000Y-71000000D02*
G75*
G02*
X235280000Y-71000000I-3270000J0D01*
G01*
X235280000Y-71000000D02*
G75*
G02*
X241820000Y-71000000I3270000J0D01*
G01*
%TO.C,R12*%
X231927064Y-71635000D02*
X231472936Y-71635000D01*
X231927064Y-70165000D02*
X231472936Y-70165000D01*
%TO.C,R15*%
X243535000Y-64539564D02*
X243535000Y-64085436D01*
X242065000Y-64539564D02*
X242065000Y-64085436D01*
%TO.C,R14*%
X242139564Y-62335000D02*
X241685436Y-62335000D01*
X242139564Y-60865000D02*
X241685436Y-60865000D01*
%TO.C,R13*%
X242264564Y-67735000D02*
X241810436Y-67735000D01*
X242264564Y-66265000D02*
X241810436Y-66265000D01*
%TO.C,C22*%
X243370000Y-74880000D02*
X243370000Y-80120000D01*
X243033000Y-74880000D02*
X243370000Y-74880000D01*
X240630000Y-74880000D02*
X240967000Y-74880000D01*
X243370000Y-80120000D02*
X243033000Y-80120000D01*
X240967000Y-80120000D02*
X240630000Y-80120000D01*
X240630000Y-80120000D02*
X240630000Y-74880000D01*
%TO.C,C20*%
X240220000Y-79100000D02*
G75*
G02*
X229980000Y-79100000I-5120000J0D01*
G01*
X229980000Y-79100000D02*
G75*
G02*
X240220000Y-79100000I5120000J0D01*
G01*
%TO.C,C23*%
X236620000Y-66400000D02*
G75*
G02*
X230080000Y-66400000I-3270000J0D01*
G01*
X230080000Y-66400000D02*
G75*
G02*
X236620000Y-66400000I3270000J0D01*
G01*
D14*
%TO.C,U3*%
X219394800Y-62330000D02*
G75*
G02*
X218785200Y-62330000I-304800J0D01*
G01*
X222392000Y-72490000D02*
X222392000Y-72102814D01*
X222392000Y-70337186D02*
X222392000Y-69562814D01*
X222392000Y-67797186D02*
X222392000Y-67022814D01*
X222392000Y-65257186D02*
X222392000Y-64482814D01*
X222392000Y-62717186D02*
X222392000Y-62330000D01*
X222392000Y-62330000D02*
X215788000Y-62330000D01*
X215788000Y-72490000D02*
X222392000Y-72490000D01*
X215788000Y-72102814D02*
X215788000Y-72490000D01*
X215788000Y-69562814D02*
X215788000Y-70337186D01*
X215788000Y-67022814D02*
X215788000Y-67797186D01*
X215788000Y-64618540D02*
X215788000Y-65257186D01*
D13*
%TO.C,C21*%
X248820000Y-93600000D02*
G75*
G02*
X238580000Y-93600000I-5120000J0D01*
G01*
X238580000Y-93600000D02*
G75*
G02*
X248820000Y-93600000I5120000J0D01*
G01*
%TO.C,D4*%
X213700000Y-110760000D02*
X213700000Y-109740000D01*
X212230000Y-108960000D02*
X215170000Y-108960000D01*
X212230000Y-108840000D02*
X215170000Y-108840000D01*
X212230000Y-108720000D02*
X215170000Y-108720000D01*
X213700000Y-103280000D02*
X213700000Y-104300000D01*
X212230000Y-109740000D02*
X215170000Y-109740000D01*
X215170000Y-104300000D01*
X212230000Y-104300000D01*
X212230000Y-109740000D01*
%TO.C,R16*%
X224272936Y-40865000D02*
X224727064Y-40865000D01*
X224272936Y-42335000D02*
X224727064Y-42335000D01*
%TO.C,D6*%
X239580000Y-58100000D02*
X240600000Y-58100000D01*
X241380000Y-56630000D02*
X241380000Y-59570000D01*
X241500000Y-56630000D02*
X241500000Y-59570000D01*
X241620000Y-56630000D02*
X241620000Y-59570000D01*
X247060000Y-58100000D02*
X246040000Y-58100000D01*
X240600000Y-56630000D02*
X246040000Y-56630000D01*
X246040000Y-59570000D01*
X240600000Y-59570000D01*
X240600000Y-56630000D01*
%TO.C,RV4*%
X226720000Y-63380000D02*
X228100000Y-63380000D01*
X226720000Y-64760000D02*
X226720000Y-63380000D01*
X226720000Y-66030000D02*
X226720000Y-71220000D01*
X226720000Y-66030000D02*
X229480000Y-66030000D01*
X226720000Y-71220000D02*
X229480000Y-71220000D01*
X229480000Y-66030000D02*
X229480000Y-71220000D01*
%TO.C,R1*%
X199972936Y-76565000D02*
X200427064Y-76565000D01*
X199972936Y-78035000D02*
X200427064Y-78035000D01*
D14*
%TO.C,U5*%
X218298000Y-78608540D02*
X218298000Y-79247186D01*
X218298000Y-81012814D02*
X218298000Y-81787186D01*
X218298000Y-83552814D02*
X218298000Y-84327186D01*
X218298000Y-86092814D02*
X218298000Y-86480000D01*
X218298000Y-86480000D02*
X224902000Y-86480000D01*
X224902000Y-76320000D02*
X218298000Y-76320000D01*
X224902000Y-76707186D02*
X224902000Y-76320000D01*
X224902000Y-79247186D02*
X224902000Y-78472814D01*
X224902000Y-81787186D02*
X224902000Y-81012814D01*
X224902000Y-84327186D02*
X224902000Y-83552814D01*
X224902000Y-86480000D02*
X224902000Y-86092814D01*
X221904800Y-76320000D02*
G75*
G02*
X221295200Y-76320000I-304800J0D01*
G01*
D13*
%TO.C,R6*%
X212515000Y-71264564D02*
X212515000Y-70810436D01*
X213985000Y-71264564D02*
X213985000Y-70810436D01*
%TO.C,RV1*%
X202720000Y-85670000D02*
X202720000Y-80480000D01*
X205480000Y-80480000D02*
X202720000Y-80480000D01*
X205480000Y-85670000D02*
X202720000Y-85670000D01*
X205480000Y-85670000D02*
X205480000Y-80480000D01*
X205480000Y-86940000D02*
X205480000Y-88320000D01*
X205480000Y-88320000D02*
X204100000Y-88320000D01*
%TO.C,D3*%
X207100000Y-103280000D02*
X207100000Y-104300000D01*
X208570000Y-105080000D02*
X205630000Y-105080000D01*
X208570000Y-105200000D02*
X205630000Y-105200000D01*
X208570000Y-105320000D02*
X205630000Y-105320000D01*
X207100000Y-110760000D02*
X207100000Y-109740000D01*
X208570000Y-104300000D02*
X205630000Y-104300000D01*
X205630000Y-109740000D01*
X208570000Y-109740000D01*
X208570000Y-104300000D01*
%TO.C,R7*%
X224190000Y-67052064D02*
X224190000Y-66597936D01*
X225660000Y-67052064D02*
X225660000Y-66597936D01*
%TO.C,RV2*%
X213220000Y-86330000D02*
X213220000Y-81140000D01*
X215980000Y-81140000D02*
X213220000Y-81140000D01*
X215980000Y-86330000D02*
X213220000Y-86330000D01*
X215980000Y-86330000D02*
X215980000Y-81140000D01*
X215980000Y-87600000D02*
X215980000Y-88980000D01*
X215980000Y-88980000D02*
X214600000Y-88980000D01*
%TO.C,RV3*%
X226920000Y-81140000D02*
X228300000Y-81140000D01*
X226920000Y-82520000D02*
X226920000Y-81140000D01*
X226920000Y-83790000D02*
X226920000Y-88980000D01*
X226920000Y-83790000D02*
X229680000Y-83790000D01*
X226920000Y-88980000D02*
X229680000Y-88980000D01*
X229680000Y-83790000D02*
X229680000Y-88980000D01*
%TO.C,D7*%
X227245000Y-42880000D02*
X227245000Y-41500000D01*
X228625000Y-42880000D02*
X227245000Y-42880000D01*
X229895000Y-40120000D02*
X232545000Y-40120000D01*
X229895000Y-42880000D02*
X229895000Y-40120000D01*
X229895000Y-42880000D02*
X232545000Y-42880000D01*
X232545000Y-42880000D02*
X232545000Y-40120000D01*
%TO.C,R2*%
X210739564Y-77165000D02*
X210285436Y-77165000D01*
X210739564Y-78635000D02*
X210285436Y-78635000D01*
%TO.C,C6*%
X220020000Y-94700000D02*
G75*
G02*
X213480000Y-94700000I-3270000J0D01*
G01*
X213480000Y-94700000D02*
G75*
G02*
X220020000Y-94700000I3270000J0D01*
G01*
%TO.C,VM4220M1*%
X200660000Y-64825000D02*
X200935000Y-64825000D01*
X200660000Y-70345000D02*
X200660000Y-64837500D01*
X200935000Y-70345000D02*
X200660000Y-70345000D01*
X210305000Y-64825000D02*
X210580000Y-64825000D01*
X210580000Y-64822500D02*
X210580000Y-70345000D01*
X210580000Y-70345000D02*
X210305000Y-70345000D01*
X210780000Y-64525000D02*
X210310000Y-64185000D01*
X210780000Y-63845000D01*
X210780000Y-64525000D01*
G36*
X210780000Y-64525000D02*
G01*
X210310000Y-64185000D01*
X210780000Y-63845000D01*
X210780000Y-64525000D01*
G37*
%TO.C,C19*%
X237670000Y-88300000D02*
G75*
G02*
X231130000Y-88300000I-3270000J0D01*
G01*
X231130000Y-88300000D02*
G75*
G02*
X237670000Y-88300000I3270000J0D01*
G01*
%TO.C,D2*%
X210400000Y-110760000D02*
X210400000Y-109740000D01*
X208930000Y-108960000D02*
X211870000Y-108960000D01*
X208930000Y-108840000D02*
X211870000Y-108840000D01*
X208930000Y-108720000D02*
X211870000Y-108720000D01*
X210400000Y-103280000D02*
X210400000Y-104300000D01*
X208930000Y-109740000D02*
X211870000Y-109740000D01*
X211870000Y-104300000D01*
X208930000Y-104300000D01*
X208930000Y-109740000D01*
%TO.C,C7*%
X201870000Y-85100000D02*
G75*
G02*
X195330000Y-85100000I-3270000J0D01*
G01*
X195330000Y-85100000D02*
G75*
G02*
X201870000Y-85100000I3270000J0D01*
G01*
%TO.C,FB1*%
X197465000Y-69960000D02*
X197465000Y-67240000D01*
X199735000Y-67240000D02*
X199735000Y-69960000D01*
%TO.C,R11*%
X228172936Y-89765000D02*
X228627064Y-89765000D01*
X228172936Y-91235000D02*
X228627064Y-91235000D01*
%TO.C,C25*%
X246520000Y-87470000D02*
X241280000Y-87470000D01*
X246520000Y-87133000D02*
X246520000Y-87470000D01*
X246520000Y-84730000D02*
X246520000Y-85067000D01*
X241280000Y-87470000D02*
X241280000Y-87133000D01*
X241280000Y-85067000D02*
X241280000Y-84730000D01*
X241280000Y-84730000D02*
X246520000Y-84730000D01*
%TO.C,D1*%
X203800000Y-103280000D02*
X203800000Y-104300000D01*
X205270000Y-105080000D02*
X202330000Y-105080000D01*
X205270000Y-105200000D02*
X202330000Y-105200000D01*
X205270000Y-105320000D02*
X202330000Y-105320000D01*
X203800000Y-110760000D02*
X203800000Y-109740000D01*
X205270000Y-104300000D02*
X202330000Y-104300000D01*
X202330000Y-109740000D01*
X205270000Y-109740000D01*
X205270000Y-104300000D01*
%TO.C,J1*%
X199950000Y-100110000D02*
X197840000Y-100110000D01*
X197840000Y-97890000D02*
X197840000Y-100110000D01*
X199950000Y-97890000D02*
X199950000Y-100110000D01*
X199950000Y-97890000D02*
X197840000Y-97890000D01*
X200950000Y-97890000D02*
X202060000Y-97890000D01*
X202060000Y-97890000D02*
X202060000Y-99000000D01*
%TO.C,RV5*%
X214080000Y-40120000D02*
X214080000Y-42880000D01*
X219270000Y-40120000D02*
X214080000Y-40120000D01*
X219270000Y-40120000D02*
X219270000Y-42880000D01*
X219270000Y-42880000D02*
X214080000Y-42880000D01*
X220540000Y-40120000D02*
X221920000Y-40120000D01*
X221920000Y-40120000D02*
X221920000Y-41500000D01*
D14*
%TO.C,U2*%
X205188000Y-92218540D02*
X205188000Y-92857186D01*
X205188000Y-94622814D02*
X205188000Y-95397186D01*
X205188000Y-97162814D02*
X205188000Y-97937186D01*
X205188000Y-99702814D02*
X205188000Y-100090000D01*
X205188000Y-100090000D02*
X211792000Y-100090000D01*
X211792000Y-89930000D02*
X205188000Y-89930000D01*
X211792000Y-90317186D02*
X211792000Y-89930000D01*
X211792000Y-92857186D02*
X211792000Y-92082814D01*
X211792000Y-95397186D02*
X211792000Y-94622814D01*
X211792000Y-97937186D02*
X211792000Y-97162814D01*
X211792000Y-100090000D02*
X211792000Y-99702814D01*
X208794800Y-89930000D02*
G75*
G02*
X208185200Y-89930000I-304800J0D01*
G01*
D13*
%TO.C,R5*%
X224190000Y-72164564D02*
X224190000Y-71710436D01*
X225660000Y-72164564D02*
X225660000Y-71710436D01*
%TO.C,C10*%
X212330000Y-73080000D02*
X216070000Y-73080000D01*
X212330000Y-80520000D02*
X212330000Y-73080000D01*
X216070000Y-73080000D02*
X216070000Y-80520000D01*
X216070000Y-80520000D02*
X212330000Y-80520000D01*
%TO.C,R10*%
X212640000Y-67802064D02*
X212640000Y-67347936D01*
X214110000Y-67802064D02*
X214110000Y-67347936D01*
%TO.C,R3*%
X212565000Y-63847936D02*
X212565000Y-64302064D01*
X214035000Y-63847936D02*
X214035000Y-64302064D01*
%TO.C,C8*%
X212620000Y-85800000D02*
G75*
G02*
X206080000Y-85800000I-3270000J0D01*
G01*
X206080000Y-85800000D02*
G75*
G02*
X212620000Y-85800000I3270000J0D01*
G01*
%TO.C,C26*%
X236930000Y-66520000D02*
X236930000Y-61280000D01*
X237267000Y-66520000D02*
X236930000Y-66520000D01*
X239670000Y-66520000D02*
X239333000Y-66520000D01*
X236930000Y-61280000D02*
X237267000Y-61280000D01*
X239333000Y-61280000D02*
X239670000Y-61280000D01*
X239670000Y-61280000D02*
X239670000Y-66520000D01*
D11*
%TO.C,U1*%
X195560000Y-49010000D02*
X196830000Y-49010000D01*
X195560000Y-56630000D02*
X195560000Y-49010000D01*
X196830000Y-43930000D02*
X232390000Y-43930000D01*
X196830000Y-56630000D02*
X195560000Y-56630000D01*
X196830000Y-61710000D02*
X196830000Y-43930000D01*
X201910000Y-49010000D02*
X196830000Y-49010000D01*
X201910000Y-56630000D02*
X196830000Y-56630000D01*
X201910000Y-56630000D02*
X201910000Y-49010000D01*
X208895000Y-47740000D02*
X208895000Y-57900000D01*
X219055000Y-47740000D02*
X208895000Y-47740000D01*
X219055000Y-57900000D02*
X208895000Y-57900000D01*
X219055000Y-57900000D02*
X219055000Y-47740000D01*
X219690000Y-47740000D02*
X222230000Y-47740000D01*
X219690000Y-50915000D02*
X219690000Y-47740000D01*
X222230000Y-47740000D02*
X222230000Y-50915000D01*
X222230000Y-50915000D02*
X219690000Y-50915000D01*
X224770000Y-51550000D02*
X229342000Y-51550000D01*
X224770000Y-54090000D02*
X224770000Y-51550000D01*
X229342000Y-51550000D02*
X229342000Y-54090000D01*
X229342000Y-54090000D02*
X224770000Y-54090000D01*
X232390000Y-43930000D02*
X232390000Y-61710000D01*
X232390000Y-61710000D02*
X196830000Y-61710000D01*
D10*
X211181000Y-53074000D02*
X210927000Y-53328000D01*
X210673000Y-52947000D01*
X210927000Y-52693000D01*
X211181000Y-53074000D01*
G36*
X211181000Y-53074000D02*
G01*
X210927000Y-53328000D01*
X210673000Y-52947000D01*
X210927000Y-52693000D01*
X211181000Y-53074000D01*
G37*
X211562000Y-52693000D02*
X211308000Y-52947000D01*
X211054000Y-52566000D01*
X211308000Y-52312000D01*
X211562000Y-52693000D01*
G36*
X211562000Y-52693000D02*
G01*
X211308000Y-52947000D01*
X211054000Y-52566000D01*
X211308000Y-52312000D01*
X211562000Y-52693000D01*
G37*
X211943000Y-52312000D02*
X211689000Y-52566000D01*
X211435000Y-52185000D01*
X211689000Y-51931000D01*
X211943000Y-52312000D01*
G36*
X211943000Y-52312000D02*
G01*
X211689000Y-52566000D01*
X211435000Y-52185000D01*
X211689000Y-51931000D01*
X211943000Y-52312000D01*
G37*
X212324000Y-52820000D02*
X212070000Y-53074000D01*
X211816000Y-52693000D01*
X212070000Y-52439000D01*
X212324000Y-52820000D01*
G36*
X212324000Y-52820000D02*
G01*
X212070000Y-53074000D01*
X211816000Y-52693000D01*
X212070000Y-52439000D01*
X212324000Y-52820000D01*
G37*
X212705000Y-52439000D02*
X212451000Y-52693000D01*
X212197000Y-52312000D01*
X212451000Y-52058000D01*
X212705000Y-52439000D01*
G36*
X212705000Y-52439000D02*
G01*
X212451000Y-52693000D01*
X212197000Y-52312000D01*
X212451000Y-52058000D01*
X212705000Y-52439000D01*
G37*
X212705000Y-53328000D02*
X212451000Y-53582000D01*
X212197000Y-53201000D01*
X212451000Y-52947000D01*
X212705000Y-53328000D01*
G36*
X212705000Y-53328000D02*
G01*
X212451000Y-53582000D01*
X212197000Y-53201000D01*
X212451000Y-52947000D01*
X212705000Y-53328000D01*
G37*
X213086000Y-52947000D02*
X212832000Y-53201000D01*
X212578000Y-52820000D01*
X212832000Y-52566000D01*
X213086000Y-52947000D01*
G36*
X213086000Y-52947000D02*
G01*
X212832000Y-53201000D01*
X212578000Y-52820000D01*
X212832000Y-52566000D01*
X213086000Y-52947000D01*
G37*
X213467000Y-53455000D02*
X213213000Y-53709000D01*
X212959000Y-53328000D01*
X213213000Y-53074000D01*
X213467000Y-53455000D01*
G36*
X213467000Y-53455000D02*
G01*
X213213000Y-53709000D01*
X212959000Y-53328000D01*
X213213000Y-53074000D01*
X213467000Y-53455000D01*
G37*
D13*
%TO.C,SW1*%
X237410000Y-104210000D02*
X236300000Y-104210000D01*
X237410000Y-103100000D02*
X237410000Y-104210000D01*
X237410000Y-102100000D02*
X237410000Y-99990000D01*
X237410000Y-102100000D02*
X235300000Y-102100000D01*
X237410000Y-99990000D02*
X233190000Y-99990000D01*
X235300000Y-104210000D02*
X233190000Y-104210000D01*
X235300000Y-102100000D02*
X235300000Y-104210000D01*
X233190000Y-104210000D02*
X233190000Y-99990000D01*
%TO.C,D5*%
X249000000Y-81060000D02*
X249000000Y-80040000D01*
X249000000Y-73580000D02*
X249000000Y-74600000D01*
X247530000Y-79260000D02*
X250470000Y-79260000D01*
X247530000Y-79140000D02*
X250470000Y-79140000D01*
X247530000Y-79020000D02*
X250470000Y-79020000D01*
X247530000Y-80040000D02*
X250470000Y-80040000D01*
X250470000Y-74600000D01*
X247530000Y-74600000D01*
X247530000Y-80040000D01*
%TD*%
M02*
