%TF.GenerationSoftware,KiCad,Pcbnew,9.0.5-9.0.5~ubuntu24.04.1*%
%TF.CreationDate,2025-12-28T13:44:13+09:00*%
%TF.ProjectId,bdm-reverb,62646d2d-7265-4766-9572-622e6b696361,rev?*%
%TF.SameCoordinates,Original*%
%TF.FileFunction,Legend,Bot*%
%TF.FilePolarity,Positive*%
%FSLAX46Y46*%
G04 Gerber Fmt 4.6, Leading zero omitted, Abs format (unit mm)*
G04 Created by KiCad (PCBNEW 9.0.5-9.0.5~ubuntu24.04.1) date 2025-12-28 13:44:13*
%MOMM*%
%LPD*%
G01*
G04 APERTURE LIST*
%ADD10C,0.080000*%
%ADD11C,0.150000*%
%ADD12C,0.120000*%
G04 APERTURE END LIST*
D10*
X209714285Y-81689744D02*
X209752381Y-81727840D01*
X209752381Y-81727840D02*
X209866666Y-81765935D01*
X209866666Y-81765935D02*
X209942857Y-81765935D01*
X209942857Y-81765935D02*
X210057143Y-81727840D01*
X210057143Y-81727840D02*
X210133333Y-81651649D01*
X210133333Y-81651649D02*
X210171428Y-81575459D01*
X210171428Y-81575459D02*
X210209524Y-81423078D01*
X210209524Y-81423078D02*
X210209524Y-81308792D01*
X210209524Y-81308792D02*
X210171428Y-81156411D01*
X210171428Y-81156411D02*
X210133333Y-81080220D01*
X210133333Y-81080220D02*
X210057143Y-81004030D01*
X210057143Y-81004030D02*
X209942857Y-80965935D01*
X209942857Y-80965935D02*
X209866666Y-80965935D01*
X209866666Y-80965935D02*
X209752381Y-81004030D01*
X209752381Y-81004030D02*
X209714285Y-81042125D01*
X208952381Y-81765935D02*
X209409524Y-81765935D01*
X209180952Y-81765935D02*
X209180952Y-80965935D01*
X209180952Y-80965935D02*
X209257143Y-81080220D01*
X209257143Y-81080220D02*
X209333333Y-81156411D01*
X209333333Y-81156411D02*
X209409524Y-81194506D01*
X208266666Y-81232601D02*
X208266666Y-81765935D01*
X208457142Y-80927840D02*
X208647619Y-81499268D01*
X208647619Y-81499268D02*
X208152380Y-81499268D01*
D11*
X227903333Y-113194819D02*
X227903333Y-113909104D01*
X227903333Y-113909104D02*
X227950952Y-114051961D01*
X227950952Y-114051961D02*
X228046190Y-114147200D01*
X228046190Y-114147200D02*
X228189047Y-114194819D01*
X228189047Y-114194819D02*
X228284285Y-114194819D01*
X226998571Y-113194819D02*
X227189047Y-113194819D01*
X227189047Y-113194819D02*
X227284285Y-113242438D01*
X227284285Y-113242438D02*
X227331904Y-113290057D01*
X227331904Y-113290057D02*
X227427142Y-113432914D01*
X227427142Y-113432914D02*
X227474761Y-113623390D01*
X227474761Y-113623390D02*
X227474761Y-114004342D01*
X227474761Y-114004342D02*
X227427142Y-114099580D01*
X227427142Y-114099580D02*
X227379523Y-114147200D01*
X227379523Y-114147200D02*
X227284285Y-114194819D01*
X227284285Y-114194819D02*
X227093809Y-114194819D01*
X227093809Y-114194819D02*
X226998571Y-114147200D01*
X226998571Y-114147200D02*
X226950952Y-114099580D01*
X226950952Y-114099580D02*
X226903333Y-114004342D01*
X226903333Y-114004342D02*
X226903333Y-113766247D01*
X226903333Y-113766247D02*
X226950952Y-113671009D01*
X226950952Y-113671009D02*
X226998571Y-113623390D01*
X226998571Y-113623390D02*
X227093809Y-113575771D01*
X227093809Y-113575771D02*
X227284285Y-113575771D01*
X227284285Y-113575771D02*
X227379523Y-113623390D01*
X227379523Y-113623390D02*
X227427142Y-113671009D01*
X227427142Y-113671009D02*
X227474761Y-113766247D01*
X207841666Y-95784580D02*
X207889285Y-95832200D01*
X207889285Y-95832200D02*
X208032142Y-95879819D01*
X208032142Y-95879819D02*
X208127380Y-95879819D01*
X208127380Y-95879819D02*
X208270237Y-95832200D01*
X208270237Y-95832200D02*
X208365475Y-95736961D01*
X208365475Y-95736961D02*
X208413094Y-95641723D01*
X208413094Y-95641723D02*
X208460713Y-95451247D01*
X208460713Y-95451247D02*
X208460713Y-95308390D01*
X208460713Y-95308390D02*
X208413094Y-95117914D01*
X208413094Y-95117914D02*
X208365475Y-95022676D01*
X208365475Y-95022676D02*
X208270237Y-94927438D01*
X208270237Y-94927438D02*
X208127380Y-94879819D01*
X208127380Y-94879819D02*
X208032142Y-94879819D01*
X208032142Y-94879819D02*
X207889285Y-94927438D01*
X207889285Y-94927438D02*
X207841666Y-94975057D01*
X206984523Y-95213152D02*
X206984523Y-95879819D01*
X207222618Y-94832200D02*
X207460713Y-95546485D01*
X207460713Y-95546485D02*
X206841666Y-95546485D01*
X199242857Y-73359580D02*
X199290476Y-73407200D01*
X199290476Y-73407200D02*
X199433333Y-73454819D01*
X199433333Y-73454819D02*
X199528571Y-73454819D01*
X199528571Y-73454819D02*
X199671428Y-73407200D01*
X199671428Y-73407200D02*
X199766666Y-73311961D01*
X199766666Y-73311961D02*
X199814285Y-73216723D01*
X199814285Y-73216723D02*
X199861904Y-73026247D01*
X199861904Y-73026247D02*
X199861904Y-72883390D01*
X199861904Y-72883390D02*
X199814285Y-72692914D01*
X199814285Y-72692914D02*
X199766666Y-72597676D01*
X199766666Y-72597676D02*
X199671428Y-72502438D01*
X199671428Y-72502438D02*
X199528571Y-72454819D01*
X199528571Y-72454819D02*
X199433333Y-72454819D01*
X199433333Y-72454819D02*
X199290476Y-72502438D01*
X199290476Y-72502438D02*
X199242857Y-72550057D01*
X198290476Y-73454819D02*
X198861904Y-73454819D01*
X198576190Y-73454819D02*
X198576190Y-72454819D01*
X198576190Y-72454819D02*
X198671428Y-72597676D01*
X198671428Y-72597676D02*
X198766666Y-72692914D01*
X198766666Y-72692914D02*
X198861904Y-72740533D01*
X197338095Y-73454819D02*
X197909523Y-73454819D01*
X197623809Y-73454819D02*
X197623809Y-72454819D01*
X197623809Y-72454819D02*
X197719047Y-72597676D01*
X197719047Y-72597676D02*
X197814285Y-72692914D01*
X197814285Y-72692914D02*
X197909523Y-72740533D01*
X209892857Y-69939580D02*
X209940476Y-69987200D01*
X209940476Y-69987200D02*
X210083333Y-70034819D01*
X210083333Y-70034819D02*
X210178571Y-70034819D01*
X210178571Y-70034819D02*
X210321428Y-69987200D01*
X210321428Y-69987200D02*
X210416666Y-69891961D01*
X210416666Y-69891961D02*
X210464285Y-69796723D01*
X210464285Y-69796723D02*
X210511904Y-69606247D01*
X210511904Y-69606247D02*
X210511904Y-69463390D01*
X210511904Y-69463390D02*
X210464285Y-69272914D01*
X210464285Y-69272914D02*
X210416666Y-69177676D01*
X210416666Y-69177676D02*
X210321428Y-69082438D01*
X210321428Y-69082438D02*
X210178571Y-69034819D01*
X210178571Y-69034819D02*
X210083333Y-69034819D01*
X210083333Y-69034819D02*
X209940476Y-69082438D01*
X209940476Y-69082438D02*
X209892857Y-69130057D01*
X209559523Y-69034819D02*
X208940476Y-69034819D01*
X208940476Y-69034819D02*
X209273809Y-69415771D01*
X209273809Y-69415771D02*
X209130952Y-69415771D01*
X209130952Y-69415771D02*
X209035714Y-69463390D01*
X209035714Y-69463390D02*
X208988095Y-69511009D01*
X208988095Y-69511009D02*
X208940476Y-69606247D01*
X208940476Y-69606247D02*
X208940476Y-69844342D01*
X208940476Y-69844342D02*
X208988095Y-69939580D01*
X208988095Y-69939580D02*
X209035714Y-69987200D01*
X209035714Y-69987200D02*
X209130952Y-70034819D01*
X209130952Y-70034819D02*
X209416666Y-70034819D01*
X209416666Y-70034819D02*
X209511904Y-69987200D01*
X209511904Y-69987200D02*
X209559523Y-69939580D01*
X208559523Y-69130057D02*
X208511904Y-69082438D01*
X208511904Y-69082438D02*
X208416666Y-69034819D01*
X208416666Y-69034819D02*
X208178571Y-69034819D01*
X208178571Y-69034819D02*
X208083333Y-69082438D01*
X208083333Y-69082438D02*
X208035714Y-69130057D01*
X208035714Y-69130057D02*
X207988095Y-69225295D01*
X207988095Y-69225295D02*
X207988095Y-69320533D01*
X207988095Y-69320533D02*
X208035714Y-69463390D01*
X208035714Y-69463390D02*
X208607142Y-70034819D01*
X208607142Y-70034819D02*
X207988095Y-70034819D01*
X227029819Y-66658333D02*
X226553628Y-66325000D01*
X227029819Y-66086905D02*
X226029819Y-66086905D01*
X226029819Y-66086905D02*
X226029819Y-66467857D01*
X226029819Y-66467857D02*
X226077438Y-66563095D01*
X226077438Y-66563095D02*
X226125057Y-66610714D01*
X226125057Y-66610714D02*
X226220295Y-66658333D01*
X226220295Y-66658333D02*
X226363152Y-66658333D01*
X226363152Y-66658333D02*
X226458390Y-66610714D01*
X226458390Y-66610714D02*
X226506009Y-66563095D01*
X226506009Y-66563095D02*
X226553628Y-66467857D01*
X226553628Y-66467857D02*
X226553628Y-66086905D01*
X226363152Y-67515476D02*
X227029819Y-67515476D01*
X225982200Y-67277381D02*
X226696485Y-67039286D01*
X226696485Y-67039286D02*
X226696485Y-67658333D01*
X198642857Y-81159580D02*
X198690476Y-81207200D01*
X198690476Y-81207200D02*
X198833333Y-81254819D01*
X198833333Y-81254819D02*
X198928571Y-81254819D01*
X198928571Y-81254819D02*
X199071428Y-81207200D01*
X199071428Y-81207200D02*
X199166666Y-81111961D01*
X199166666Y-81111961D02*
X199214285Y-81016723D01*
X199214285Y-81016723D02*
X199261904Y-80826247D01*
X199261904Y-80826247D02*
X199261904Y-80683390D01*
X199261904Y-80683390D02*
X199214285Y-80492914D01*
X199214285Y-80492914D02*
X199166666Y-80397676D01*
X199166666Y-80397676D02*
X199071428Y-80302438D01*
X199071428Y-80302438D02*
X198928571Y-80254819D01*
X198928571Y-80254819D02*
X198833333Y-80254819D01*
X198833333Y-80254819D02*
X198690476Y-80302438D01*
X198690476Y-80302438D02*
X198642857Y-80350057D01*
X197690476Y-81254819D02*
X198261904Y-81254819D01*
X197976190Y-81254819D02*
X197976190Y-80254819D01*
X197976190Y-80254819D02*
X198071428Y-80397676D01*
X198071428Y-80397676D02*
X198166666Y-80492914D01*
X198166666Y-80492914D02*
X198261904Y-80540533D01*
X197309523Y-80350057D02*
X197261904Y-80302438D01*
X197261904Y-80302438D02*
X197166666Y-80254819D01*
X197166666Y-80254819D02*
X196928571Y-80254819D01*
X196928571Y-80254819D02*
X196833333Y-80302438D01*
X196833333Y-80302438D02*
X196785714Y-80350057D01*
X196785714Y-80350057D02*
X196738095Y-80445295D01*
X196738095Y-80445295D02*
X196738095Y-80540533D01*
X196738095Y-80540533D02*
X196785714Y-80683390D01*
X196785714Y-80683390D02*
X197357142Y-81254819D01*
X197357142Y-81254819D02*
X196738095Y-81254819D01*
X220417857Y-67259580D02*
X220465476Y-67307200D01*
X220465476Y-67307200D02*
X220608333Y-67354819D01*
X220608333Y-67354819D02*
X220703571Y-67354819D01*
X220703571Y-67354819D02*
X220846428Y-67307200D01*
X220846428Y-67307200D02*
X220941666Y-67211961D01*
X220941666Y-67211961D02*
X220989285Y-67116723D01*
X220989285Y-67116723D02*
X221036904Y-66926247D01*
X221036904Y-66926247D02*
X221036904Y-66783390D01*
X221036904Y-66783390D02*
X220989285Y-66592914D01*
X220989285Y-66592914D02*
X220941666Y-66497676D01*
X220941666Y-66497676D02*
X220846428Y-66402438D01*
X220846428Y-66402438D02*
X220703571Y-66354819D01*
X220703571Y-66354819D02*
X220608333Y-66354819D01*
X220608333Y-66354819D02*
X220465476Y-66402438D01*
X220465476Y-66402438D02*
X220417857Y-66450057D01*
X219465476Y-67354819D02*
X220036904Y-67354819D01*
X219751190Y-67354819D02*
X219751190Y-66354819D01*
X219751190Y-66354819D02*
X219846428Y-66497676D01*
X219846428Y-66497676D02*
X219941666Y-66592914D01*
X219941666Y-66592914D02*
X220036904Y-66640533D01*
X218894047Y-66783390D02*
X218989285Y-66735771D01*
X218989285Y-66735771D02*
X219036904Y-66688152D01*
X219036904Y-66688152D02*
X219084523Y-66592914D01*
X219084523Y-66592914D02*
X219084523Y-66545295D01*
X219084523Y-66545295D02*
X219036904Y-66450057D01*
X219036904Y-66450057D02*
X218989285Y-66402438D01*
X218989285Y-66402438D02*
X218894047Y-66354819D01*
X218894047Y-66354819D02*
X218703571Y-66354819D01*
X218703571Y-66354819D02*
X218608333Y-66402438D01*
X218608333Y-66402438D02*
X218560714Y-66450057D01*
X218560714Y-66450057D02*
X218513095Y-66545295D01*
X218513095Y-66545295D02*
X218513095Y-66592914D01*
X218513095Y-66592914D02*
X218560714Y-66688152D01*
X218560714Y-66688152D02*
X218608333Y-66735771D01*
X218608333Y-66735771D02*
X218703571Y-66783390D01*
X218703571Y-66783390D02*
X218894047Y-66783390D01*
X218894047Y-66783390D02*
X218989285Y-66831009D01*
X218989285Y-66831009D02*
X219036904Y-66878628D01*
X219036904Y-66878628D02*
X219084523Y-66973866D01*
X219084523Y-66973866D02*
X219084523Y-67164342D01*
X219084523Y-67164342D02*
X219036904Y-67259580D01*
X219036904Y-67259580D02*
X218989285Y-67307200D01*
X218989285Y-67307200D02*
X218894047Y-67354819D01*
X218894047Y-67354819D02*
X218703571Y-67354819D01*
X218703571Y-67354819D02*
X218608333Y-67307200D01*
X218608333Y-67307200D02*
X218560714Y-67259580D01*
X218560714Y-67259580D02*
X218513095Y-67164342D01*
X218513095Y-67164342D02*
X218513095Y-66973866D01*
X218513095Y-66973866D02*
X218560714Y-66878628D01*
X218560714Y-66878628D02*
X218608333Y-66831009D01*
X218608333Y-66831009D02*
X218703571Y-66783390D01*
X244454819Y-70238095D02*
X245264342Y-70238095D01*
X245264342Y-70238095D02*
X245359580Y-70285714D01*
X245359580Y-70285714D02*
X245407200Y-70333333D01*
X245407200Y-70333333D02*
X245454819Y-70428571D01*
X245454819Y-70428571D02*
X245454819Y-70619047D01*
X245454819Y-70619047D02*
X245407200Y-70714285D01*
X245407200Y-70714285D02*
X245359580Y-70761904D01*
X245359580Y-70761904D02*
X245264342Y-70809523D01*
X245264342Y-70809523D02*
X244454819Y-70809523D01*
X244788152Y-71714285D02*
X245454819Y-71714285D01*
X244407200Y-71476190D02*
X245121485Y-71238095D01*
X245121485Y-71238095D02*
X245121485Y-71857142D01*
X199542857Y-54939580D02*
X199590476Y-54987200D01*
X199590476Y-54987200D02*
X199733333Y-55034819D01*
X199733333Y-55034819D02*
X199828571Y-55034819D01*
X199828571Y-55034819D02*
X199971428Y-54987200D01*
X199971428Y-54987200D02*
X200066666Y-54891961D01*
X200066666Y-54891961D02*
X200114285Y-54796723D01*
X200114285Y-54796723D02*
X200161904Y-54606247D01*
X200161904Y-54606247D02*
X200161904Y-54463390D01*
X200161904Y-54463390D02*
X200114285Y-54272914D01*
X200114285Y-54272914D02*
X200066666Y-54177676D01*
X200066666Y-54177676D02*
X199971428Y-54082438D01*
X199971428Y-54082438D02*
X199828571Y-54034819D01*
X199828571Y-54034819D02*
X199733333Y-54034819D01*
X199733333Y-54034819D02*
X199590476Y-54082438D01*
X199590476Y-54082438D02*
X199542857Y-54130057D01*
X199209523Y-54034819D02*
X198590476Y-54034819D01*
X198590476Y-54034819D02*
X198923809Y-54415771D01*
X198923809Y-54415771D02*
X198780952Y-54415771D01*
X198780952Y-54415771D02*
X198685714Y-54463390D01*
X198685714Y-54463390D02*
X198638095Y-54511009D01*
X198638095Y-54511009D02*
X198590476Y-54606247D01*
X198590476Y-54606247D02*
X198590476Y-54844342D01*
X198590476Y-54844342D02*
X198638095Y-54939580D01*
X198638095Y-54939580D02*
X198685714Y-54987200D01*
X198685714Y-54987200D02*
X198780952Y-55034819D01*
X198780952Y-55034819D02*
X199066666Y-55034819D01*
X199066666Y-55034819D02*
X199161904Y-54987200D01*
X199161904Y-54987200D02*
X199209523Y-54939580D01*
X197971428Y-54034819D02*
X197876190Y-54034819D01*
X197876190Y-54034819D02*
X197780952Y-54082438D01*
X197780952Y-54082438D02*
X197733333Y-54130057D01*
X197733333Y-54130057D02*
X197685714Y-54225295D01*
X197685714Y-54225295D02*
X197638095Y-54415771D01*
X197638095Y-54415771D02*
X197638095Y-54653866D01*
X197638095Y-54653866D02*
X197685714Y-54844342D01*
X197685714Y-54844342D02*
X197733333Y-54939580D01*
X197733333Y-54939580D02*
X197780952Y-54987200D01*
X197780952Y-54987200D02*
X197876190Y-55034819D01*
X197876190Y-55034819D02*
X197971428Y-55034819D01*
X197971428Y-55034819D02*
X198066666Y-54987200D01*
X198066666Y-54987200D02*
X198114285Y-54939580D01*
X198114285Y-54939580D02*
X198161904Y-54844342D01*
X198161904Y-54844342D02*
X198209523Y-54653866D01*
X198209523Y-54653866D02*
X198209523Y-54415771D01*
X198209523Y-54415771D02*
X198161904Y-54225295D01*
X198161904Y-54225295D02*
X198114285Y-54130057D01*
X198114285Y-54130057D02*
X198066666Y-54082438D01*
X198066666Y-54082438D02*
X197971428Y-54034819D01*
D12*
%TO.C,C14*%
X211720000Y-82070000D02*
X211720000Y-81733000D01*
X211720000Y-79667000D02*
X211720000Y-79330000D01*
X211720000Y-79330000D02*
X206480000Y-79330000D01*
X206480000Y-82070000D02*
X211720000Y-82070000D01*
X206480000Y-81733000D02*
X206480000Y-82070000D01*
X206480000Y-79330000D02*
X206480000Y-79667000D01*
%TO.C,J6*%
X224920000Y-112740000D02*
X226300000Y-112740000D01*
X224920000Y-111360000D02*
X224920000Y-112740000D01*
X224920000Y-110090000D02*
X224920000Y-92200000D01*
X224920000Y-110090000D02*
X227570000Y-110090000D01*
X224920000Y-92200000D02*
X230220000Y-92200000D01*
X227570000Y-112740000D02*
X230220000Y-112740000D01*
X227570000Y-110090000D02*
X227570000Y-112740000D01*
X230220000Y-112740000D02*
X230220000Y-92200000D01*
%TO.C,C36*%
X221411252Y-84890000D02*
X219988748Y-84890000D01*
X221411252Y-86710000D02*
X219988748Y-86710000D01*
%TO.C,C35*%
X222986252Y-76690000D02*
X221563748Y-76690000D01*
X222986252Y-78510000D02*
X221563748Y-78510000D01*
%TO.C,C4*%
X208386252Y-96365000D02*
X206963748Y-96365000D01*
X208386252Y-98185000D02*
X206963748Y-98185000D01*
%TO.C,C11*%
X201770000Y-74850000D02*
G75*
G02*
X195230000Y-74850000I-3270000J0D01*
G01*
X195230000Y-74850000D02*
G75*
G02*
X201770000Y-74850000I3270000J0D01*
G01*
%TO.C,C13*%
X211720000Y-75700000D02*
G75*
G02*
X205180000Y-75700000I-3270000J0D01*
G01*
X205180000Y-75700000D02*
G75*
G02*
X211720000Y-75700000I3270000J0D01*
G01*
%TO.C,C17*%
X217488748Y-68840000D02*
X218911252Y-68840000D01*
X217488748Y-70660000D02*
X218911252Y-70660000D01*
%TO.C,C32*%
X208988748Y-67165000D02*
X209511252Y-67165000D01*
X208988748Y-68635000D02*
X209511252Y-68635000D01*
%TO.C,R4*%
X224190000Y-67052064D02*
X224190000Y-66597936D01*
X225660000Y-67052064D02*
X225660000Y-66597936D01*
%TO.C,C12*%
X200995000Y-81445000D02*
X200995000Y-81108000D01*
X200995000Y-79042000D02*
X200995000Y-78705000D01*
X200995000Y-78705000D02*
X195755000Y-78705000D01*
X195755000Y-81445000D02*
X200995000Y-81445000D01*
X195755000Y-81108000D02*
X195755000Y-81445000D01*
X195755000Y-78705000D02*
X195755000Y-79042000D01*
%TO.C,C18*%
X219063748Y-64140000D02*
X220486252Y-64140000D01*
X219063748Y-65960000D02*
X220486252Y-65960000D01*
%TO.C,U4*%
X248640000Y-60090000D02*
X248640000Y-62340000D01*
X248640000Y-61315000D02*
X246004000Y-61315000D01*
X248640000Y-62285000D02*
X246004000Y-62285000D01*
X248640000Y-64660000D02*
X248640000Y-65740000D01*
X248640000Y-64715000D02*
X246004000Y-64715000D01*
X248640000Y-65685000D02*
X246004000Y-65685000D01*
X248640000Y-68060000D02*
X248640000Y-70310000D01*
X248640000Y-68115000D02*
X246110000Y-68115000D01*
X248640000Y-69085000D02*
X246110000Y-69085000D01*
X248640000Y-70310000D02*
X253260000Y-70310000D01*
X251880000Y-70310000D02*
X251880000Y-60090000D01*
X253260000Y-60090000D02*
X248640000Y-60090000D01*
X253260000Y-63350000D02*
X251880000Y-63350000D01*
X253260000Y-67050000D02*
X251880000Y-67050000D01*
X253260000Y-70310000D02*
X253260000Y-60090000D01*
%TO.C,R9*%
X224190000Y-70022936D02*
X224190000Y-70477064D01*
X225660000Y-70022936D02*
X225660000Y-70477064D01*
%TO.C,C28*%
X200461252Y-49015000D02*
X199938748Y-49015000D01*
X200461252Y-50485000D02*
X199938748Y-50485000D01*
%TO.C,R18*%
X205865000Y-67627064D02*
X205865000Y-67172936D01*
X207335000Y-67627064D02*
X207335000Y-67172936D01*
%TO.C,C2*%
X209961252Y-91740000D02*
X208538748Y-91740000D01*
X209961252Y-93560000D02*
X208538748Y-93560000D01*
%TO.C,R17*%
X195565000Y-63872936D02*
X195565000Y-64327064D01*
X197035000Y-63872936D02*
X197035000Y-64327064D01*
%TO.C,C30*%
X198638748Y-52165000D02*
X199161252Y-52165000D01*
X198638748Y-53635000D02*
X199161252Y-53635000D01*
%TO.C,R8*%
X212615000Y-67347936D02*
X212615000Y-67802064D01*
X214085000Y-67347936D02*
X214085000Y-67802064D01*
%TD*%
M02*
