%TF.GenerationSoftware,KiCad,Pcbnew,9.0.5-9.0.5~ubuntu24.04.1*%
%TF.CreationDate,2025-12-28T13:44:13+09:00*%
%TF.ProjectId,bdm-reverb,62646d2d-7265-4766-9572-622e6b696361,rev?*%
%TF.SameCoordinates,Original*%
%TF.FileFunction,Paste,Bot*%
%TF.FilePolarity,Positive*%
%FSLAX46Y46*%
G04 Gerber Fmt 4.6, Leading zero omitted, Abs format (unit mm)*
G04 Created by KiCad (PCBNEW 9.0.5-9.0.5~ubuntu24.04.1) date 2025-12-28 13:44:13*
%MOMM*%
%LPD*%
G01*
G04 APERTURE LIST*
G04 Aperture macros list*
%AMRoundRect*
0 Rectangle with rounded corners*
0 $1 Rounding radius*
0 $2 $3 $4 $5 $6 $7 $8 $9 X,Y pos of 4 corners*
0 Add a 4 corners polygon primitive as box body*
4,1,4,$2,$3,$4,$5,$6,$7,$8,$9,$2,$3,0*
0 Add four circle primitives for the rounded corners*
1,1,$1+$1,$2,$3*
1,1,$1+$1,$4,$5*
1,1,$1+$1,$6,$7*
1,1,$1+$1,$8,$9*
0 Add four rect primitives between the rounded corners*
20,1,$1+$1,$2,$3,$4,$5,0*
20,1,$1+$1,$4,$5,$6,$7,0*
20,1,$1+$1,$6,$7,$8,$9,0*
20,1,$1+$1,$8,$9,$2,$3,0*%
G04 Aperture macros list end*
%ADD10RoundRect,0.079500X0.079500X0.100500X-0.079500X0.100500X-0.079500X-0.100500X0.079500X-0.100500X0*%
%ADD11RoundRect,0.250000X0.325000X0.650000X-0.325000X0.650000X-0.325000X-0.650000X0.325000X-0.650000X0*%
%ADD12RoundRect,0.079500X-0.079500X-0.100500X0.079500X-0.100500X0.079500X0.100500X-0.079500X0.100500X0*%
%ADD13RoundRect,0.250000X-0.325000X-0.650000X0.325000X-0.650000X0.325000X0.650000X-0.325000X0.650000X0*%
%ADD14RoundRect,0.250000X-0.250000X-0.475000X0.250000X-0.475000X0.250000X0.475000X-0.250000X0.475000X0*%
%ADD15RoundRect,0.250000X0.450000X-0.262500X0.450000X0.262500X-0.450000X0.262500X-0.450000X-0.262500X0*%
%ADD16RoundRect,0.250000X-0.450000X0.262500X-0.450000X-0.262500X0.450000X-0.262500X0.450000X0.262500X0*%
%ADD17RoundRect,0.250000X0.250000X0.475000X-0.250000X0.475000X-0.250000X-0.475000X0.250000X-0.475000X0*%
G04 APERTURE END LIST*
D10*
%TO.C,C34*%
X218555000Y-84300000D03*
X219245000Y-84300000D03*
%TD*%
%TO.C,C33*%
X222800000Y-79200000D03*
X223490000Y-79200000D03*
%TD*%
D11*
%TO.C,C36*%
X222175000Y-85800000D03*
X219225000Y-85800000D03*
%TD*%
%TO.C,C35*%
X223750000Y-77600000D03*
X220800000Y-77600000D03*
%TD*%
%TO.C,C4*%
X209150000Y-97275000D03*
X206200000Y-97275000D03*
%TD*%
D12*
%TO.C,C16*%
X221135000Y-63475000D03*
X221825000Y-63475000D03*
%TD*%
%TO.C,C31*%
X207900000Y-66500000D03*
X208590000Y-66500000D03*
%TD*%
%TO.C,C29*%
X198455000Y-47200000D03*
X199145000Y-47200000D03*
%TD*%
D13*
%TO.C,C17*%
X216725000Y-69750000D03*
X219675000Y-69750000D03*
%TD*%
D14*
%TO.C,C32*%
X208300000Y-67900000D03*
X210200000Y-67900000D03*
%TD*%
D10*
%TO.C,C3*%
X206525000Y-98875000D03*
X205835000Y-98875000D03*
%TD*%
D15*
%TO.C,R4*%
X224925000Y-67737500D03*
X224925000Y-65912500D03*
%TD*%
D13*
%TO.C,C18*%
X218300000Y-65050000D03*
X221250000Y-65050000D03*
%TD*%
D10*
%TO.C,C1*%
X211165000Y-91125000D03*
X210475000Y-91125000D03*
%TD*%
D16*
%TO.C,R9*%
X224925000Y-69337500D03*
X224925000Y-71162500D03*
%TD*%
D17*
%TO.C,C28*%
X201150000Y-49750000D03*
X199250000Y-49750000D03*
%TD*%
D15*
%TO.C,R18*%
X206600000Y-68312500D03*
X206600000Y-66487500D03*
%TD*%
D11*
%TO.C,C2*%
X210725000Y-92650000D03*
X207775000Y-92650000D03*
%TD*%
D16*
%TO.C,R17*%
X196300000Y-63187500D03*
X196300000Y-65012500D03*
%TD*%
D12*
%TO.C,C15*%
X216285000Y-71300000D03*
X216975000Y-71300000D03*
%TD*%
D14*
%TO.C,C30*%
X197950000Y-52900000D03*
X199850000Y-52900000D03*
%TD*%
D16*
%TO.C,R8*%
X213350000Y-66662500D03*
X213350000Y-68487500D03*
%TD*%
M02*
