%TF.GenerationSoftware,KiCad,Pcbnew,9.0.5-9.0.5~ubuntu24.04.1*%
%TF.CreationDate,2025-12-28T13:44:13+09:00*%
%TF.ProjectId,bdm-reverb,62646d2d-7265-4766-9572-622e6b696361,rev?*%
%TF.SameCoordinates,Original*%
%TF.FileFunction,Paste,Top*%
%TF.FilePolarity,Positive*%
%FSLAX46Y46*%
G04 Gerber Fmt 4.6, Leading zero omitted, Abs format (unit mm)*
G04 Created by KiCad (PCBNEW 9.0.5-9.0.5~ubuntu24.04.1) date 2025-12-28 13:44:13*
%MOMM*%
%LPD*%
G01*
G04 APERTURE LIST*
G04 Aperture macros list*
%AMRoundRect*
0 Rectangle with rounded corners*
0 $1 Rounding radius*
0 $2 $3 $4 $5 $6 $7 $8 $9 X,Y pos of 4 corners*
0 Add a 4 corners polygon primitive as box body*
4,1,4,$2,$3,$4,$5,$6,$7,$8,$9,$2,$3,0*
0 Add four circle primitives for the rounded corners*
1,1,$1+$1,$2,$3*
1,1,$1+$1,$4,$5*
1,1,$1+$1,$6,$7*
1,1,$1+$1,$8,$9*
0 Add four rect primitives between the rounded corners*
20,1,$1+$1,$2,$3,$4,$5,0*
20,1,$1+$1,$4,$5,$6,$7,0*
20,1,$1+$1,$6,$7,$8,$9,0*
20,1,$1+$1,$8,$9,$2,$3,0*%
G04 Aperture macros list end*
%ADD10RoundRect,0.250000X-0.475000X0.250000X-0.475000X-0.250000X0.475000X-0.250000X0.475000X0.250000X0*%
%ADD11RoundRect,0.250000X-0.250000X-0.475000X0.250000X-0.475000X0.250000X0.475000X-0.250000X0.475000X0*%
%ADD12RoundRect,0.250000X0.475000X-0.250000X0.475000X0.250000X-0.475000X0.250000X-0.475000X-0.250000X0*%
%ADD13RoundRect,0.250000X0.262500X0.450000X-0.262500X0.450000X-0.262500X-0.450000X0.262500X-0.450000X0*%
%ADD14RoundRect,0.250000X0.450000X-0.262500X0.450000X0.262500X-0.450000X0.262500X-0.450000X-0.262500X0*%
%ADD15RoundRect,0.250000X-0.262500X-0.450000X0.262500X-0.450000X0.262500X0.450000X-0.262500X0.450000X0*%
%ADD16RoundRect,0.250000X-0.390000X0.300000X-0.390000X-0.300000X0.390000X-0.300000X0.390000X0.300000X0*%
%ADD17RoundRect,0.100000X-0.100000X0.637500X-0.100000X-0.637500X0.100000X-0.637500X0.100000X0.637500X0*%
%ADD18RoundRect,0.250000X0.625000X-0.350000X0.625000X0.350000X-0.625000X0.350000X-0.625000X-0.350000X0*%
%ADD19RoundRect,0.079500X-0.079500X-0.100500X0.079500X-0.100500X0.079500X0.100500X-0.079500X0.100500X0*%
%ADD20RoundRect,0.250000X-0.450000X0.262500X-0.450000X-0.262500X0.450000X-0.262500X0.450000X0.262500X0*%
G04 APERTURE END LIST*
D10*
%TO.C,C40*%
X203400000Y-40850000D03*
X203400000Y-42750000D03*
%TD*%
D11*
%TO.C,C39*%
X221700000Y-98700000D03*
X223600000Y-98700000D03*
%TD*%
D10*
%TO.C,C38*%
X223200000Y-109350000D03*
X223200000Y-111250000D03*
%TD*%
D12*
%TO.C,C37*%
X223300000Y-103100000D03*
X223300000Y-101200000D03*
%TD*%
D13*
%TO.C,R12*%
X230787500Y-70900000D03*
X232612500Y-70900000D03*
%TD*%
D14*
%TO.C,R15*%
X242800000Y-63400000D03*
X242800000Y-65225000D03*
%TD*%
D13*
%TO.C,R14*%
X241000000Y-61600000D03*
X242825000Y-61600000D03*
%TD*%
%TO.C,R13*%
X241125000Y-67000000D03*
X242950000Y-67000000D03*
%TD*%
D15*
%TO.C,R16*%
X223587500Y-41600000D03*
X225412500Y-41600000D03*
%TD*%
%TO.C,R1*%
X199287500Y-77300000D03*
X201112500Y-77300000D03*
%TD*%
D14*
%TO.C,R6*%
X213250000Y-71950000D03*
X213250000Y-70125000D03*
%TD*%
%TO.C,R7*%
X224925000Y-67737500D03*
X224925000Y-65912500D03*
%TD*%
D13*
%TO.C,R2*%
X211425000Y-77900000D03*
X209600000Y-77900000D03*
%TD*%
D16*
%TO.C,VM4220M1*%
X207200000Y-66900000D03*
X205620000Y-66900000D03*
X204040000Y-66900000D03*
X207200000Y-68270000D03*
X205620000Y-68270000D03*
X204040000Y-68270000D03*
D17*
X209845000Y-64172500D03*
X209195000Y-64172500D03*
X208545000Y-64172500D03*
X207895000Y-64172500D03*
X207245000Y-64172500D03*
X206595000Y-64172500D03*
X205945000Y-64172500D03*
X205295000Y-64172500D03*
X204645000Y-64172500D03*
X203995000Y-64172500D03*
X203345000Y-64172500D03*
X202695000Y-64172500D03*
X202045000Y-64172500D03*
X201395000Y-64172500D03*
X201395000Y-70897500D03*
X202045000Y-70897500D03*
X202695000Y-70897500D03*
X203345000Y-70897500D03*
X203995000Y-70897500D03*
X204645000Y-70897500D03*
X205295000Y-70897500D03*
X205945000Y-70897500D03*
X206595000Y-70897500D03*
X207245000Y-70897500D03*
X207895000Y-70897500D03*
X208545000Y-70897500D03*
X209195000Y-70897500D03*
X209845000Y-70897500D03*
%TD*%
D18*
%TO.C,FB1*%
X198600000Y-69875000D03*
X198600000Y-67325000D03*
%TD*%
D15*
%TO.C,R11*%
X227487500Y-90500000D03*
X229312500Y-90500000D03*
%TD*%
D19*
%TO.C,C27*%
X202055000Y-62900000D03*
X202745000Y-62900000D03*
%TD*%
D14*
%TO.C,R5*%
X224925000Y-72850000D03*
X224925000Y-71025000D03*
%TD*%
%TO.C,R10*%
X213375000Y-68487500D03*
X213375000Y-66662500D03*
%TD*%
D20*
%TO.C,R3*%
X213300000Y-63162500D03*
X213300000Y-64987500D03*
%TD*%
M02*
